<svg xmlns="http://www.w3.org/2000/svg" xmlns:xlink="http://www.w3.org/1999/xlink" contentStyleType="text/css" data-diagram-type="SEQUENCE" height="345px" preserveAspectRatio="none" style="width:504px;height:345px;background:#FFFFFF;" version="1.1" viewBox="0 0 504 345" width="504px" zoomAndPan="magnify"><title>Example Run Target Transition Sequence</title><defs/><g><text fill="#000000" font-family="sans-serif" font-size="14" font-weight="bold" lengthAdjust="spacing" textLength="326.1631" x="88.3887" y="27.9951">Example Run Target Transition Sequence</text><g><title>Log Daemon</title><rect fill="#FFFFFF" height="182.6641" style="stroke:#181818;stroke-width:1;" width="10" x="311.7817" y="118.7266"/></g><g><title>App A</title><rect fill="#FFFFFF" height="81.2656" style="stroke:#181818;stroke-width:1;" width="10" x="400.8462" y="220.125"/></g><g><title>App B</title><rect fill="#FFFFFF" height="67.2656" style="stroke:#181818;stroke-width:1;" width="10" x="466.2378" y="234.125"/></g><g><title>Control Client</title><rect fill="transparent" height="236.7969" width="8" x="55.9473" y="73.5938"/><line style="stroke:#181818;stroke-width:0.5;stroke-dasharray:5.0,5.0;" x1="59" x2="59" y1="73.5938" y2="310.3906"/></g><g><title>Launch Manager</title><rect fill="transparent" height="236.7969" width="8" x="186.1504" y="73.5938"/><line style="stroke:#181818;stroke-width:0.5;stroke-dasharray:5.0,5.0;" x1="189.8945" x2="189.8945" y1="73.5938" y2="310.3906"/></g><g><title>Log Daemon</title><rect fill="transparent" height="236.7969" width="8" x="312.7817" y="73.5938"/><line style="stroke:#181818;stroke-width:0.5;stroke-dasharray:5.0,5.0;" x1="316.4063" x2="316.4063" y1="73.5938" y2="310.3906"/></g><g><title>App A</title><rect fill="transparent" height="236.7969" width="8" x="401.8462" y="73.5938"/><line style="stroke:#181818;stroke-width:0.5;stroke-dasharray:5.0,5.0;" x1="405.1572" x2="405.1572" y1="73.5938" y2="310.3906"/></g><g><title>App B</title><rect fill="transparent" height="236.7969" width="8" x="467.2378" y="73.5938"/><line style="stroke:#181818;stroke-width:0.5;stroke-dasharray:5.0,5.0;" x1="470.5352" x2="470.5352" y1="73.5938" y2="310.3906"/></g><rect fill="#E2E2F0" height="30.2969" rx="2.5" ry="2.5" style="stroke:#181818;stroke-width:0.5;" width="109.8945" x="5" y="42.2969"/><text fill="#000000" font-family="sans-serif" font-size="14" lengthAdjust="spacing" textLength="95.8945" x="12" y="62.292">Control Client</text><rect fill="#E2E2F0" height="30.2969" rx="2.5" ry="2.5" style="stroke:#181818;stroke-width:0.5;" width="109.8945" x="5" y="309.3906"/><text fill="#000000" font-family="sans-serif" font-size="14" lengthAdjust="spacing" textLength="95.8945" x="12" y="329.3857">Control Client</text><rect fill="#E2E2F0" height="30.2969" rx="2.5" ry="2.5" style="stroke:#181818;stroke-width:0.5;" width="130.5117" x="124.8945" y="42.2969"/><text fill="#000000" font-family="sans-serif" font-size="14" lengthAdjust="spacing" textLength="116.5117" x="131.8945" y="62.292">Launch Manager</text><rect fill="#E2E2F0" height="30.2969" rx="2.5" ry="2.5" style="stroke:#181818;stroke-width:0.5;" width="130.5117" x="124.8945" y="309.3906"/><text fill="#000000" font-family="sans-serif" font-size="14" lengthAdjust="spacing" textLength="116.5117" x="131.8945" y="329.3857">Launch Manager</text><rect fill="#E2E2F0" height="30.2969" rx="2.5" ry="2.5" style="stroke:#181818;stroke-width:0.5;" width="102.751" x="265.4063" y="42.2969"/><text fill="#000000" font-family="sans-serif" font-size="14" lengthAdjust="spacing" textLength="88.751" x="272.4063" y="62.292">Log Daemon</text><rect fill="#E2E2F0" height="30.2969" rx="2.5" ry="2.5" style="stroke:#181818;stroke-width:0.5;" width="102.751" x="265.4063" y="309.3906"/><text fill="#000000" font-family="sans-serif" font-size="14" lengthAdjust="spacing" textLength="88.751" x="272.4063" y="329.3857">Log Daemon</text><rect fill="#E2E2F0" height="30.2969" rx="2.5" ry="2.5" style="stroke:#181818;stroke-width:0.5;" width="55.3779" x="378.1572" y="42.2969"/><text fill="#000000" font-family="sans-serif" font-size="14" lengthAdjust="spacing" textLength="41.3779" x="385.1572" y="62.292">App A</text><rect fill="#E2E2F0" height="30.2969" rx="2.5" ry="2.5" style="stroke:#181818;stroke-width:0.5;" width="55.3779" x="378.1572" y="309.3906"/><text fill="#000000" font-family="sans-serif" font-size="14" lengthAdjust="spacing" textLength="41.3779" x="385.1572" y="329.3857">App A</text><rect fill="#E2E2F0" height="30.2969" rx="2.5" ry="2.5" style="stroke:#181818;stroke-width:0.5;" width="55.4053" x="443.5352" y="42.2969"/><text fill="#000000" font-family="sans-serif" font-size="14" lengthAdjust="spacing" textLength="41.4053" x="450.5352" y="62.292">App B</text><rect fill="#E2E2F0" height="30.2969" rx="2.5" ry="2.5" style="stroke:#181818;stroke-width:0.5;" width="55.4053" x="443.5352" y="309.3906"/><text fill="#000000" font-family="sans-serif" font-size="14" lengthAdjust="spacing" textLength="41.4053" x="450.5352" y="329.3857">App B</text><g><title>Log Daemon</title><rect fill="#FFFFFF" height="182.6641" style="stroke:#181818;stroke-width:1;" width="10" x="311.7817" y="118.7266"/></g><g><title>App A</title><rect fill="#FFFFFF" height="81.2656" style="stroke:#181818;stroke-width:1;" width="10" x="400.8462" y="220.125"/></g><g><title>App B</title><rect fill="#FFFFFF" height="67.2656" style="stroke:#181818;stroke-width:1;" width="10" x="466.2378" y="234.125"/></g><polygon fill="#181818" points="178.1504,100.7266,188.1504,104.7266,178.1504,108.7266,182.1504,104.7266" style="stroke:#181818;stroke-width:1;"/><line style="stroke:#181818;stroke-width:1;stroke-dasharray:2.0,2.0;" x1="59.9473" x2="184.1504" y1="104.7266" y2="104.7266"/><text fill="#000000" font-family="sans-serif" font-size="13" lengthAdjust="spacing" textLength="105.8853" x="66.9473" y="99.6606">Activate Startup</text><polygon fill="#181818" points="299.7817,114.7266,309.7817,118.7266,299.7817,122.7266,303.7817,118.7266" style="stroke:#181818;stroke-width:1;"/><line style="stroke:#181818;stroke-width:1;stroke-dasharray:2.0,2.0;" x1="190.1504" x2="305.7817" y1="118.7266" y2="118.7266"/><polygon fill="#181818" points="201.1504,143.8594,191.1504,147.8594,201.1504,151.8594,197.1504,147.8594" style="stroke:#181818;stroke-width:1;"/><line style="stroke:#181818;stroke-width:1;stroke-dasharray:2.0,2.0;" x1="195.1504" x2="310.7817" y1="147.8594" y2="147.8594"/><text fill="#000000" font-family="sans-serif" font-size="13" lengthAdjust="spacing" textLength="48.4707" x="207.1504" y="142.7935">kReady</text><polygon fill="#181818" points="70.9473,172.9922,60.9473,176.9922,70.9473,180.9922,66.9473,176.9922" style="stroke:#181818;stroke-width:1;"/><line style="stroke:#181818;stroke-width:1;stroke-dasharray:2.0,2.0;" x1="64.9473" x2="189.1504" y1="176.9922" y2="176.9922"/><text fill="#000000" font-family="sans-serif" font-size="13" lengthAdjust="spacing" textLength="40.9424" x="76.9473" y="171.9263">Ready</text><polygon fill="#181818" points="178.1504,202.125,188.1504,206.125,178.1504,210.125,182.1504,206.125" style="stroke:#181818;stroke-width:1;"/><line style="stroke:#181818;stroke-width:1;stroke-dasharray:2.0,2.0;" x1="59.9473" x2="184.1504" y1="206.125" y2="206.125"/><text fill="#000000" font-family="sans-serif" font-size="13" lengthAdjust="spacing" textLength="80.5771" x="66.9473" y="201.0591">Activate Full</text><polygon fill="#181818" points="388.8462,216.125,398.8462,220.125,388.8462,224.125,392.8462,220.125" style="stroke:#181818;stroke-width:1;"/><line style="stroke:#181818;stroke-width:1;stroke-dasharray:2.0,2.0;" x1="190.1504" x2="394.8462" y1="220.125" y2="220.125"/><polygon fill="#181818" points="454.2378,230.125,464.2378,234.125,454.2378,238.125,458.2378,234.125" style="stroke:#181818;stroke-width:1;"/><line style="stroke:#181818;stroke-width:1;stroke-dasharray:2.0,2.0;" x1="190.1504" x2="460.2378" y1="234.125" y2="234.125"/><polygon fill="#181818" points="201.1504,259.2578,191.1504,263.2578,201.1504,267.2578,197.1504,263.2578" style="stroke:#181818;stroke-width:1;"/><line style="stroke:#181818;stroke-width:1;stroke-dasharray:2.0,2.0;" x1="195.1504" x2="399.8462" y1="263.2578" y2="263.2578"/><text fill="#000000" font-family="sans-serif" font-size="13" lengthAdjust="spacing" textLength="48.4707" x="207.1504" y="258.1919">kReady</text><polygon fill="#181818" points="201.1504,288.3906,191.1504,292.3906,201.1504,296.3906,197.1504,292.3906" style="stroke:#181818;stroke-width:1;"/><line style="stroke:#181818;stroke-width:1;stroke-dasharray:2.0,2.0;" x1="195.1504" x2="465.2378" y1="292.3906" y2="292.3906"/><text fill="#000000" font-family="sans-serif" font-size="13" lengthAdjust="spacing" textLength="48.4707" x="207.1504" y="287.3247">kReady</text><!--SRC=[RSux3i8m30RWFQUmkdC11gIMnmGBS07BjKf4weJKGN1xGe6Y5ZOdt- -7MdKCnVg6RSZ5FWaSCJQiS8medLNh1GvyIIp4XGaOrP8DA0h5qej6xs3fB8iMW1qGZIDRJ48dsA5Wmx6Fk7OIyGsia5ilBwx7N8O0PIyOGlbhrSSgOuXWDbla3NCeIUqLbU6WkIC5OrpxmjhWntBjwg7bl6UixqEGQ0xldtzpDycv8TkVDepjNr-fHfBFVFfqwrCcVmy0]--></g></svg>