<svg xmlns="http://www.w3.org/2000/svg" xmlns:xlink="http://www.w3.org/1999/xlink" contentStyleType="text/css" data-diagram-type="SEQUENCE" height="1104px" preserveAspectRatio="none" style="width:1306px;height:1104px;background:#FFFFFF;" version="1.1" viewBox="0 0 1306 1104" width="1306px" zoomAndPan="magnify"><defs/><g><rect fill="#DDDDDD" height="1092.1172" style="stroke:#181818;stroke-width:0.5;" width="736.0752" x="16" y="6"/><text fill="#000000" font-family="sans-serif" font-size="13" font-weight="bold" lengthAdjust="spacing" textLength="94.6943" x="336.6904" y="18.0669">User process</text><rect fill="#DDDDDD" height="1092.1172" style="stroke:#181818;stroke-width:0.5;" width="179.8115" x="917.1304" y="6"/><text fill="#000000" font-family="sans-serif" font-size="13" font-weight="bold" lengthAdjust="spacing" textLength="173.8115" x="920.1304" y="18.0669">LaunchDaemon process</text><rect fill="transparent" height="466.9297" style="stroke:#000000;stroke-width:1.5;" width="1270.0439" x="10" y="534.8906"/><rect fill="transparent" height="59.2656" style="stroke:#000000;stroke-width:1.5;" width="192.8599" x="935.1641" y="644.2891"/><rect fill="transparent" height="59.2656" style="stroke:#000000;stroke-width:1.5;" width="192.8599" x="935.1641" y="759.6875"/><g><title>user</title><rect fill="transparent" height="284.1953" width="8" x="34.2681" y="101.4297"/><line style="stroke:#181818;stroke-width:0.5;stroke-dasharray:5.0,5.0;" x1="38" x2="38" y1="101.4297" y2="385.625"/></g><line style="stroke:#A80036;stroke-width:1;stroke-dasharray:1.0,4.0;" x1="38" x2="38" y1="385.625" y2="413.625"/><g><title>user</title><rect fill="transparent" height="86.2656" width="8" x="34.2681" y="413.625"/><line style="stroke:#181818;stroke-width:0.5;stroke-dasharray:5.0,5.0;" x1="38" x2="38" y1="413.625" y2="499.8906"/></g><line style="stroke:#A80036;stroke-width:1;stroke-dasharray:1.0,4.0;" x1="38" x2="38" y1="499.8906" y2="527.8906"/><g><title>user</title><rect fill="transparent" height="490.9297" width="8" x="34.2681" y="527.8906"/><line style="stroke:#181818;stroke-width:0.5;stroke-dasharray:5.0,5.0;" x1="38" x2="38" y1="527.8906" y2="1018.8203"/></g><g><title>HealthMonitorBuilder</title><rect fill="transparent" height="284.1953" width="8" x="370.9282" y="101.4297"/><line style="stroke:#181818;stroke-width:0.5;stroke-dasharray:5.0,5.0;" x1="374.5771" x2="374.5771" y1="101.4297" y2="385.625"/></g><line style="stroke:#A80036;stroke-width:1;stroke-dasharray:1.0,4.0;" x1="374.5771" x2="374.5771" y1="385.625" y2="413.625"/><g><title>HealthMonitorBuilder</title><rect fill="transparent" height="86.2656" width="8" x="370.9282" y="413.625"/><line style="stroke:#181818;stroke-width:0.5;stroke-dasharray:5.0,5.0;" x1="374.5771" x2="374.5771" y1="413.625" y2="499.8906"/></g><line style="stroke:#A80036;stroke-width:1;stroke-dasharray:1.0,4.0;" x1="374.5771" x2="374.5771" y1="499.8906" y2="527.8906"/><g><title>HealthMonitorBuilder</title><rect fill="transparent" height="490.9297" width="8" x="370.9282" y="527.8906"/><line style="stroke:#181818;stroke-width:0.5;stroke-dasharray:5.0,5.0;" x1="374.5771" x2="374.5771" y1="527.8906" y2="1018.8203"/></g><g><title>HealthMonitor</title><rect fill="transparent" height="284.1953" width="8" x="518.874" y="101.4297"/><line style="stroke:#181818;stroke-width:0.5;stroke-dasharray:5.0,5.0;" x1="522.2793" x2="522.2793" y1="101.4297" y2="385.625"/></g><line style="stroke:#A80036;stroke-width:1;stroke-dasharray:1.0,4.0;" x1="522.2793" x2="522.2793" y1="385.625" y2="413.625"/><g><title>HealthMonitor</title><rect fill="transparent" height="86.2656" width="8" x="518.874" y="413.625"/><line style="stroke:#181818;stroke-width:0.5;stroke-dasharray:5.0,5.0;" x1="522.2793" x2="522.2793" y1="413.625" y2="499.8906"/></g><line style="stroke:#A80036;stroke-width:1;stroke-dasharray:1.0,4.0;" x1="522.2793" x2="522.2793" y1="499.8906" y2="527.8906"/><g><title>HealthMonitor</title><rect fill="transparent" height="490.9297" width="8" x="518.874" y="527.8906"/><line style="stroke:#181818;stroke-width:0.5;stroke-dasharray:5.0,5.0;" x1="522.2793" x2="522.2793" y1="527.8906" y2="1018.8203"/></g><g><title>Lifecycle</title><rect fill="transparent" height="284.1953" width="8" x="706.3682" y="101.4297"/><line style="stroke:#181818;stroke-width:0.5;stroke-dasharray:5.0,5.0;" x1="709.6611" x2="709.6611" y1="101.4297" y2="385.625"/></g><line style="stroke:#A80036;stroke-width:1;stroke-dasharray:1.0,4.0;" x1="709.6611" x2="709.6611" y1="385.625" y2="413.625"/><g><title>Lifecycle</title><rect fill="transparent" height="86.2656" width="8" x="706.3682" y="413.625"/><line style="stroke:#181818;stroke-width:0.5;stroke-dasharray:5.0,5.0;" x1="709.6611" x2="709.6611" y1="413.625" y2="499.8906"/></g><line style="stroke:#A80036;stroke-width:1;stroke-dasharray:1.0,4.0;" x1="709.6611" x2="709.6611" y1="499.8906" y2="527.8906"/><g><title>Lifecycle</title><rect fill="transparent" height="490.9297" width="8" x="706.3682" y="527.8906"/><line style="stroke:#181818;stroke-width:0.5;stroke-dasharray:5.0,5.0;" x1="709.6611" x2="709.6611" y1="527.8906" y2="1018.8203"/></g><g><title>LaunchDaemon</title><rect fill="transparent" height="284.1953" width="8" x="1003.0361" y="101.4297"/><line style="stroke:#181818;stroke-width:0.5;stroke-dasharray:5.0,5.0;" x1="1006.1641" x2="1006.1641" y1="101.4297" y2="385.625"/></g><line style="stroke:#A80036;stroke-width:1;stroke-dasharray:1.0,4.0;" x1="1006.1641" x2="1006.1641" y1="385.625" y2="413.625"/><g><title>LaunchDaemon</title><rect fill="transparent" height="86.2656" width="8" x="1003.0361" y="413.625"/><line style="stroke:#181818;stroke-width:0.5;stroke-dasharray:5.0,5.0;" x1="1006.1641" x2="1006.1641" y1="413.625" y2="499.8906"/></g><line style="stroke:#A80036;stroke-width:1;stroke-dasharray:1.0,4.0;" x1="1006.1641" x2="1006.1641" y1="499.8906" y2="527.8906"/><g><title>LaunchDaemon</title><rect fill="transparent" height="490.9297" width="8" x="1003.0361" y="527.8906"/><line style="stroke:#181818;stroke-width:0.5;stroke-dasharray:5.0,5.0;" x1="1006.1641" x2="1006.1641" y1="527.8906" y2="1018.8203"/></g><text fill="#000000" font-family="sans-serif" font-size="14" lengthAdjust="spacing" textLength="30.5361" x="20" y="98.1279">user</text><ellipse cx="38.2681" cy="33.6328" fill="#E2E2F0" rx="8" ry="8" style="stroke:#181818;stroke-width:0.5;"/><path d="M38.2681,41.6328 L38.2681,68.6328 M25.2681,49.6328 L51.2681,49.6328 M38.2681,68.6328 L25.2681,83.6328 M38.2681,68.6328 L51.2681,83.6328 " fill="transparent" style="stroke:#181818;stroke-width:0.5;"/><text fill="#000000" font-family="sans-serif" font-size="14" lengthAdjust="spacing" textLength="30.5361" x="20" y="1030.8154">user</text><ellipse cx="38.2681" cy="1042.6172" fill="#E2E2F0" rx="8" ry="8" style="stroke:#181818;stroke-width:0.5;"/><path d="M38.2681,1050.6172 L38.2681,1077.6172 M25.2681,1058.6172 L51.2681,1058.6172 M38.2681,1077.6172 L25.2681,1092.6172 M38.2681,1077.6172 L51.2681,1092.6172 " fill="transparent" style="stroke:#181818;stroke-width:0.5;"/><rect fill="#E2E2F0" height="30.2969" rx="2.5" ry="2.5" style="stroke:#181818;stroke-width:0.5;" width="162.7021" x="293.5771" y="70.1328"/><text fill="#000000" font-family="sans-serif" font-size="14" lengthAdjust="spacing" textLength="148.7021" x="300.5771" y="90.1279">HealthMonitorBuilder</text><rect fill="#E2E2F0" height="30.2969" rx="2.5" ry="2.5" style="stroke:#181818;stroke-width:0.5;" width="162.7021" x="293.5771" y="1017.8203"/><text fill="#000000" font-family="sans-serif" font-size="14" lengthAdjust="spacing" textLength="148.7021" x="300.5771" y="1037.8154">HealthMonitorBuilder</text><rect fill="#E2E2F0" height="30.2969" rx="2.5" ry="2.5" style="stroke:#181818;stroke-width:0.5;" width="113.1895" x="466.2793" y="70.1328"/><text fill="#000000" font-family="sans-serif" font-size="14" lengthAdjust="spacing" textLength="99.1895" x="473.2793" y="90.1279">HealthMonitor</text><rect fill="#E2E2F0" height="30.2969" rx="2.5" ry="2.5" style="stroke:#181818;stroke-width:0.5;" width="113.1895" x="466.2793" y="1017.8203"/><text fill="#000000" font-family="sans-serif" font-size="14" lengthAdjust="spacing" textLength="99.1895" x="473.2793" y="1037.8154">HealthMonitor</text><rect fill="#E2E2F0" height="30.2969" rx="2.5" ry="2.5" style="stroke:#181818;stroke-width:0.5;" width="75.4141" x="672.6611" y="70.1328"/><text fill="#000000" font-family="sans-serif" font-size="14" lengthAdjust="spacing" textLength="61.4141" x="679.6611" y="90.1279">Lifecycle</text><rect fill="#E2E2F0" height="30.2969" rx="2.5" ry="2.5" style="stroke:#181818;stroke-width:0.5;" width="75.4141" x="672.6611" y="1017.8203"/><text fill="#000000" font-family="sans-serif" font-size="14" lengthAdjust="spacing" textLength="61.4141" x="679.6611" y="1037.8154">Lifecycle</text><rect fill="#E2E2F0" height="30.2969" rx="2.5" ry="2.5" style="stroke:#181818;stroke-width:0.5;" width="123.7441" x="945.1641" y="70.1328"/><text fill="#000000" font-family="sans-serif" font-size="14" lengthAdjust="spacing" textLength="109.7441" x="952.1641" y="90.1279">LaunchDaemon</text><rect fill="#E2E2F0" height="30.2969" rx="2.5" ry="2.5" style="stroke:#181818;stroke-width:0.5;" width="123.7441" x="945.1641" y="1017.8203"/><text fill="#000000" font-family="sans-serif" font-size="14" lengthAdjust="spacing" textLength="109.7441" x="952.1641" y="1037.8154">LaunchDaemon</text><rect fill="#EEEEEE" height="3" style="stroke:#EEEEEE;stroke-width:1;" width="1299.0776" x="0" y="131.9961"/><line style="stroke:#000000;stroke-width:1;" x1="0" x2="1299.0776" y1="131.9961" y2="131.9961"/><line style="stroke:#000000;stroke-width:1;" x1="0" x2="1299.0776" y1="134.9961" y2="134.9961"/><rect fill="#EEEEEE" height="23.1328" style="stroke:#000000;stroke-width:2;" width="137.9126" x="580.5825" y="121.4297"/><text fill="#000000" font-family="sans-serif" font-size="13" font-weight="bold" lengthAdjust="spacing" textLength="119.3867" x="586.5825" y="137.4966">Application Side</text><polygon fill="#181818" points="362.9282,171.6953,372.9282,175.6953,362.9282,179.6953,366.9282,175.6953" style="stroke:#181818;stroke-width:1;"/><line style="stroke:#181818;stroke-width:1;" x1="38.2681" x2="368.9282" y1="175.6953" y2="175.6953"/><text fill="#000000" font-family="sans-serif" font-size="13" lengthAdjust="spacing" textLength="312.6602" x="45.2681" y="170.6294">build(supervisor_api_notification_cycle_time, ...)</text><polygon fill="#181818" points="510.874,200.8281,520.874,204.8281,510.874,208.8281,514.874,204.8281" style="stroke:#181818;stroke-width:1;"/><line style="stroke:#181818;stroke-width:1;" x1="374.9282" x2="516.874" y1="204.8281" y2="204.8281"/><text fill="#000000" font-family="sans-serif" font-size="13" lengthAdjust="spacing" textLength="41.5518" x="381.9282" y="199.7622">create</text><polygon fill="#181818" points="995.0361,232.9609,1005.0361,236.9609,995.0361,240.9609,999.0361,236.9609" style="stroke:#181818;stroke-width:1;"/><line style="stroke:#181818;stroke-width:1;" x1="522.874" x2="1001.0361" y1="236.9609" y2="236.9609"/><text fill="#000000" font-family="sans-serif" font-size="13" lengthAdjust="spacing" textLength="436.1284" x="529.874" y="231.895">register_health_monitor(supervisor_api_notification_cycle_time, ...)</text><path d="M220,217.8281 L220,242.8281 L517,242.8281 L517,227.8281 L507,217.8281 L220,217.8281 " fill="#FEFFDD" style="stroke:#181818;stroke-width:0.5;"/><path d="M507,217.8281 L507,227.8281 L517,227.8281 L507,217.8281 " fill="#FEFFDD" style="stroke:#181818;stroke-width:0.5;"/><text fill="#000000" font-family="sans-serif" font-size="13" lengthAdjust="spacing" textLength="276.3262" x="226" y="234.895">All configuration needed can be send here</text><polygon fill="#181818" points="49.2681,265.0938,39.2681,269.0938,49.2681,273.0938,45.2681,269.0938" style="stroke:#181818;stroke-width:1;"/><line style="stroke:#181818;stroke-width:1;stroke-dasharray:2.0,2.0;" x1="43.2681" x2="373.9282" y1="269.0938" y2="269.0938"/><text fill="#000000" font-family="sans-serif" font-size="13" lengthAdjust="spacing" textLength="151.3091" x="55.2681" y="264.0278">HealthMonitor instance</text><polygon fill="#181818" points="510.874,294.2266,520.874,298.2266,510.874,302.2266,514.874,298.2266" style="stroke:#181818;stroke-width:1;"/><line style="stroke:#181818;stroke-width:1;" x1="38.2681" x2="516.874" y1="298.2266" y2="298.2266"/><text fill="#000000" font-family="sans-serif" font-size="13" lengthAdjust="spacing" textLength="40.4219" x="45.2681" y="293.1606">start()</text><polygon fill="#181818" points="995.0361,323.3594,1005.0361,327.3594,995.0361,331.3594,999.0361,327.3594" style="stroke:#181818;stroke-width:1;"/><line style="stroke:#181818;stroke-width:1;" x1="522.874" x2="1001.0361" y1="327.3594" y2="327.3594"/><text fill="#000000" font-family="sans-serif" font-size="13" lengthAdjust="spacing" textLength="170.4663" x="529.874" y="322.2935">notify_started(timestamp)</text><line style="stroke:#181818;stroke-width:1;" x1="522.874" x2="564.874" y1="360.5586" y2="360.5586"/><line style="stroke:#181818;stroke-width:1;" x1="564.874" x2="564.874" y1="360.5586" y2="373.5586"/><line style="stroke:#181818;stroke-width:1;" x1="523.874" x2="564.874" y1="373.5586" y2="373.5586"/><polygon fill="#181818" points="533.874,369.5586,523.874,373.5586,533.874,377.5586,529.874,373.5586" style="stroke:#181818;stroke-width:1;"/><text fill="#000000" font-family="sans-serif" font-size="13" lengthAdjust="spacing" textLength="173.4941" x="529.874" y="355.4927">start_background_thread()</text><path d="M123,340.3594 L123,380.3594 L517,380.3594 L517,350.3594 L507,340.3594 L123,340.3594 " fill="#FEFFDD" style="stroke:#181818;stroke-width:0.5;"/><path d="M507,340.3594 L507,350.3594 L517,350.3594 L507,340.3594 " fill="#FEFFDD" style="stroke:#181818;stroke-width:0.5;"/><text fill="#000000" font-family="sans-serif" font-size="13" lengthAdjust="spacing" textLength="373.8452" x="129" y="357.4263">Notification has to finish before background thread starts</text><text fill="#000000" font-family="sans-serif" font-size="13" lengthAdjust="spacing" textLength="188.3984" x="129" y="372.5591">to not race with lifecycle api.</text><polygon fill="#181818" points="698.3682,430.7578,708.3682,434.7578,698.3682,438.7578,702.3682,434.7578" style="stroke:#181818;stroke-width:1;"/><line style="stroke:#181818;stroke-width:1;" x1="38.2681" x2="704.3682" y1="434.7578" y2="434.7578"/><text fill="#000000" font-family="sans-serif" font-size="13" lengthAdjust="spacing" textLength="106.7993" x="45.2681" y="429.6919">report_running()</text><polygon fill="#181818" points="995.0361,444.7578,1005.0361,448.7578,995.0361,452.7578,999.0361,448.7578" style="stroke:#181818;stroke-width:1;"/><line style="stroke:#181818;stroke-width:1;" x1="710.3682" x2="1001.0361" y1="448.7578" y2="448.7578"/><rect fill="#EEEEEE" height="3" style="stroke:#EEEEEE;stroke-width:1;" width="1299.0776" x="0" y="477.3242"/><line style="stroke:#000000;stroke-width:1;" x1="0" x2="1299.0776" y1="477.3242" y2="477.3242"/><line style="stroke:#000000;stroke-width:1;" x1="0" x2="1299.0776" y1="480.3242" y2="480.3242"/><rect fill="#EEEEEE" height="23.1328" style="stroke:#000000;stroke-width:2;" width="167.6323" x="565.7227" y="466.7578"/><text fill="#000000" font-family="sans-serif" font-size="13" font-weight="bold" lengthAdjust="spacing" textLength="149.1064" x="571.7227" y="482.8247">LaunchDaemon Side</text><path d="M10,534.8906 L74.4429,534.8906 L74.4429,542.0234 L64.4429,552.0234 L10,552.0234 L10,534.8906 " fill="#EEEEEE" style="stroke:#000000;stroke-width:1.5;"/><rect fill="transparent" height="466.9297" style="stroke:#000000;stroke-width:1.5;" width="1270.0439" x="10" y="534.8906"/><text fill="#000000" font-family="sans-serif" font-size="13" font-weight="bold" lengthAdjust="spacing" textLength="19.4429" x="25" y="547.9575">alt</text><text fill="#000000" font-family="sans-serif" font-size="11" font-weight="bold" lengthAdjust="spacing" textLength="177.1172" x="89.4429" y="547.1011">[USER_USES_LIFECYCLE_API]</text><polygon fill="#181818" points="698.3682,569.1563,708.3682,573.1563,698.3682,577.1563,702.3682,573.1563" style="stroke:#181818;stroke-width:1;"/><line style="stroke:#181818;stroke-width:1;" x1="38.2681" x2="704.3682" y1="573.1563" y2="573.1563"/><text fill="#000000" font-family="sans-serif" font-size="13" lengthAdjust="spacing" textLength="106.7993" x="45.2681" y="568.0903">report_running()</text><polygon fill="#181818" points="995.0361,583.1563,1005.0361,587.1563,995.0361,591.1563,999.0361,587.1563" style="stroke:#181818;stroke-width:1;"/><line style="stroke:#181818;stroke-width:1;" x1="710.3682" x2="1001.0361" y1="587.1563" y2="587.1563"/><line style="stroke:#181818;stroke-width:1;" x1="1007.0361" x2="1049.0361" y1="616.2891" y2="616.2891"/><line style="stroke:#181818;stroke-width:1;" x1="1049.0361" x2="1049.0361" y1="616.2891" y2="629.2891"/><line style="stroke:#181818;stroke-width:1;" x1="1008.0361" x2="1049.0361" y1="629.2891" y2="629.2891"/><polygon fill="#181818" points="1018.0361,625.2891,1008.0361,629.2891,1018.0361,633.2891,1014.0361,629.2891" style="stroke:#181818;stroke-width:1;"/><text fill="#000000" font-family="sans-serif" font-size="13" lengthAdjust="spacing" textLength="214.2271" x="1014.0361" y="611.2231">check_if_register_was_received()</text><path d="M935.1641,644.2891 L999.6069,644.2891 L999.6069,651.4219 L989.6069,661.4219 L935.1641,661.4219 L935.1641,644.2891 " fill="#EEEEEE" style="stroke:#000000;stroke-width:1.5;"/><rect fill="transparent" height="59.2656" style="stroke:#000000;stroke-width:1.5;" width="192.8599" x="935.1641" y="644.2891"/><text fill="#000000" font-family="sans-serif" font-size="13" font-weight="bold" lengthAdjust="spacing" textLength="19.4429" x="950.1641" y="657.356">alt</text><text fill="#000000" font-family="sans-serif" font-size="11" font-weight="bold" lengthAdjust="spacing" textLength="87.6724" x="1014.6069" y="656.4995">[not received]</text><line style="stroke:#181818;stroke-width:1;" x1="1007.0361" x2="1049.0361" y1="682.5547" y2="682.5547"/><line style="stroke:#181818;stroke-width:1;" x1="1049.0361" x2="1049.0361" y1="682.5547" y2="695.5547"/><line style="stroke:#181818;stroke-width:1;" x1="1008.0361" x2="1049.0361" y1="695.5547" y2="695.5547"/><polygon fill="#181818" points="1018.0361,691.5547,1008.0361,695.5547,1018.0361,699.5547,1014.0361,695.5547" style="stroke:#181818;stroke-width:1;"/><text fill="#000000" font-family="sans-serif" font-size="13" lengthAdjust="spacing" textLength="101.9878" x="1014.0361" y="677.4888">error_reaction()</text><line style="stroke:#181818;stroke-width:1;" x1="1007.0361" x2="1049.0361" y1="731.6875" y2="731.6875"/><line style="stroke:#181818;stroke-width:1;" x1="1049.0361" x2="1049.0361" y1="731.6875" y2="744.6875"/><line style="stroke:#181818;stroke-width:1;" x1="1008.0361" x2="1049.0361" y1="744.6875" y2="744.6875"/><polygon fill="#181818" points="1018.0361,740.6875,1008.0361,744.6875,1018.0361,748.6875,1014.0361,744.6875" style="stroke:#181818;stroke-width:1;"/><text fill="#000000" font-family="sans-serif" font-size="13" lengthAdjust="spacing" textLength="254.0078" x="1014.0361" y="726.6216">check_if_notify_started_was_received()</text><path d="M935.1641,759.6875 L999.6069,759.6875 L999.6069,766.8203 L989.6069,776.8203 L935.1641,776.8203 L935.1641,759.6875 " fill="#EEEEEE" style="stroke:#000000;stroke-width:1.5;"/><rect fill="transparent" height="59.2656" style="stroke:#000000;stroke-width:1.5;" width="192.8599" x="935.1641" y="759.6875"/><text fill="#000000" font-family="sans-serif" font-size="13" font-weight="bold" lengthAdjust="spacing" textLength="19.4429" x="950.1641" y="772.7544">alt</text><text fill="#000000" font-family="sans-serif" font-size="11" font-weight="bold" lengthAdjust="spacing" textLength="87.6724" x="1014.6069" y="771.8979">[not received]</text><line style="stroke:#181818;stroke-width:1;" x1="1007.0361" x2="1049.0361" y1="797.9531" y2="797.9531"/><line style="stroke:#181818;stroke-width:1;" x1="1049.0361" x2="1049.0361" y1="797.9531" y2="810.9531"/><line style="stroke:#181818;stroke-width:1;" x1="1008.0361" x2="1049.0361" y1="810.9531" y2="810.9531"/><polygon fill="#181818" points="1018.0361,806.9531,1008.0361,810.9531,1018.0361,814.9531,1014.0361,810.9531" style="stroke:#181818;stroke-width:1;"/><text fill="#000000" font-family="sans-serif" font-size="13" lengthAdjust="spacing" textLength="101.9878" x="1014.0361" y="792.8872">error_reaction()</text><line style="stroke:#181818;stroke-width:1;" x1="1007.0361" x2="1049.0361" y1="881.418" y2="881.418"/><line style="stroke:#181818;stroke-width:1;" x1="1049.0361" x2="1049.0361" y1="881.418" y2="894.418"/><line style="stroke:#181818;stroke-width:1;" x1="1008.0361" x2="1049.0361" y1="894.418" y2="894.418"/><polygon fill="#181818" points="1018.0361,890.418,1008.0361,894.418,1018.0361,898.418,1014.0361,894.418" style="stroke:#181818;stroke-width:1;"/><text fill="#000000" font-family="sans-serif" font-size="13" lengthAdjust="spacing" textLength="210.8501" x="1014.0361" y="876.3521">start_monitor_user_application()</text><path d="M510,830.9531 L510,930.9531 L1001,930.9531 L1001,840.9531 L991,830.9531 L510,830.9531 " fill="#FEFFDD" style="stroke:#181818;stroke-width:0.5;"/><path d="M991,830.9531 L991,840.9531 L1001,840.9531 L991,830.9531 " fill="#FEFFDD" style="stroke:#181818;stroke-width:0.5;"/><text fill="#000000" font-family="sans-serif" font-size="13" lengthAdjust="spacing" textLength="470.5708" x="516" y="848.02">Here we start monitoring application with provided configuration means</text><text fill="#000000" font-family="sans-serif" font-size="13" lengthAdjust="spacing" textLength="359.9756" x="516" y="863.1528">from now one we check cyclically if application is alive.</text><text fill="#000000" font-family="sans-serif" font-size="13" lengthAdjust="spacing" textLength="4.1323" x="516" y="878.2856">&#160;</text><text fill="#000000" font-family="sans-serif" font-size="13" font-weight="bold" lengthAdjust="spacing" textLength="35.4644" x="516" y="893.4185">HINT</text><text fill="#000000" font-family="sans-serif" font-size="13" lengthAdjust="spacing" textLength="344.2334" x="516" y="908.5513">If we want faster reaction on start we can check also</text><text fill="#000000" font-family="sans-serif" font-size="13" font-weight="bold" lengthAdjust="spacing" textLength="78.6094" x="864.3657" y="908.5513">timestamp</text><text fill="#000000" font-family="sans-serif" font-size="13" lengthAdjust="spacing" textLength="30.5386" x="947.1074" y="908.5513">from</text><text fill="#000000" font-family="sans-serif" font-size="13" lengthAdjust="spacing" textLength="352.1235" x="516" y="923.6841">notify_started to fail immediately if it already expired.</text><line style="stroke:#000000;stroke-width:1;stroke-dasharray:2.0,2.0;" x1="10" x2="1280.0439" y1="937.75" y2="937.75"/><text fill="#000000" font-family="sans-serif" font-size="11" font-weight="bold" lengthAdjust="spacing" textLength="224.0767" x="15" y="947.9604">[USER_FORGET_USE_LIFECYCLE_API]</text><line style="stroke:#181818;stroke-width:1;" x1="1007.0361" x2="1049.0361" y1="976.7539" y2="976.7539"/><line style="stroke:#181818;stroke-width:1;" x1="1049.0361" x2="1049.0361" y1="976.7539" y2="989.7539"/><line style="stroke:#181818;stroke-width:1;" x1="1008.0361" x2="1049.0361" y1="989.7539" y2="989.7539"/><polygon fill="#181818" points="1018.0361,985.7539,1008.0361,989.7539,1018.0361,993.7539,1014.0361,989.7539" style="stroke:#181818;stroke-width:1;"/><text fill="#000000" font-family="sans-serif" font-size="13" lengthAdjust="spacing" textLength="101.9878" x="1014.0361" y="971.688">error_reaction()</text><path d="M588,956.5547 L588,996.5547 L1001,996.5547 L1001,966.5547 L991,956.5547 L588,956.5547 " fill="#FEFFDD" style="stroke:#181818;stroke-width:0.5;"/><path d="M991,956.5547 L991,966.5547 L1001,966.5547 L991,956.5547 " fill="#FEFFDD" style="stroke:#181818;stroke-width:0.5;"/><text fill="#000000" font-family="sans-serif" font-size="13" lengthAdjust="spacing" textLength="392.9517" x="594" y="973.6216">Since we started user application we know whom we expect</text><text fill="#000000" font-family="sans-serif" font-size="13" lengthAdjust="spacing" textLength="115.6035" x="594" y="988.7544">to report running.</text><!--SRC=[lLJ1Rjim3BtxAuYSqc3B1mJ8W6vBrm1PDpJjOIT1aUcOg2qPajmqVpzATXoxSzTsX-KGM1BvzFZ8fvrvWiczGmkLDGgTcq02_9FA6mkJcaycSQEIrfEYIceFaskKXS-_6qqSzRcc8dqzREHyGncgeofmag1EOMUUacGN26rahLN-LM9fT4Ti9ByNreDOBk6ogWfIqXFdRob5M2wJ91G37p_167jOm2vyJLrTeNqaPwoG5GbjF6KjaeXSXQSIFy1yFhz8Hf6Utx00PL5w74Q7i3x_1LZSa_DeHHxZHDa4leyHdo8KcFdaiYX06PtHlhQD41ennHIKrB13S46l72r6uK9Uya8zp3H8jnYM1QITbrhX2y8kW8-jdrwyLdSiw2XYDARJK0n_bzL8ujW5OYVLmzwQMgV2vwnqEktBSDEJ2tBfm1l8I9FBMOJCM8HpFZJv3QvBE99nm4g5S22VGt6QL-16pC-wiV9d4RgX3Xsj31EqjTQazqohEtkkGXAdTZ3stTW6T2uRxhUhMy5_Mx5PNws-_FgoMOdBd-jeYxTS7kB-GY0UzmdyqIYLeteGb8bkKW_IyK8XFMBQtX2OHjNQxRZvEZPQo_FDwglGg1QB1NuNh-4a_HTsRw3NJ6dhPX4wnJxkdgSMx3omONNDjeG3DgdGfd8NePVOZ2G_ZeyKNJsmUebIkmYLMLCo-W6CZf1HB0Wpm3X5SGJA1gZaM2IMPjwKDfjThs_kPhEuM6S1uH3Utao60O2J98pUaWrNy0FJN2CBPnYYi_Hi5lcSAkurAzfIKW5KbfWIFvSDDV8C4anv17ogo68wFudVU0yBXuqrhdxSVblT1OUC6EGV-ZjioPQqElU42KVB3Vg1y124FkIiE2-OBweccOjhx0Yj7PyNmQFq6m00]--></g></svg>