<svg xmlns="http://www.w3.org/2000/svg" xmlns:xlink="http://www.w3.org/1999/xlink" contentStyleType="text/css" data-diagram-type="CLASS" height="349px" preserveAspectRatio="none" style="width:658px;height:349px;background:#FFFFFF;" version="1.1" viewBox="0 0 658 349" width="658px" zoomAndPan="magnify"><title>Lifecycle System View</title><defs/><g><text fill="#000000" font-family="sans-serif" font-size="14" font-weight="bold" lengthAdjust="spacing" textLength="175.4512" x="234.6567" y="22.9951">Lifecycle System View</text><!--class mwApp--><g id="elem_mwApp"><rect codeLine="3" fill="#FFFF00" height="48" id="mwApp" rx="2.5" ry="2.5" style="stroke:#181818;stroke-width:0.5;" width="140.0283" x="49" y="169.2969"/><ellipse cx="64" cy="185.2969" fill="#ADD1B2" rx="11" ry="11" style="stroke:#181818;stroke-width:1;"/><path d="M66.9688,190.9375 Q66.3906,191.2344 65.75,191.375 Q65.1094,191.5313 64.4063,191.5313 Q61.9063,191.5313 60.5781,189.8906 Q59.2656,188.2344 59.2656,185.1094 Q59.2656,181.9844 60.5781,180.3281 Q61.9063,178.6719 64.4063,178.6719 Q65.1094,178.6719 65.75,178.8281 Q66.4063,178.9844 66.9688,179.2813 L66.9688,182 Q66.3438,181.4219 65.75,181.1563 Q65.1563,180.875 64.5313,180.875 Q63.1875,180.875 62.5,181.9531 Q61.8125,183.0156 61.8125,185.1094 Q61.8125,187.2031 62.5,188.2813 Q63.1875,189.3438 64.5313,189.3438 Q65.1563,189.3438 65.75,189.0781 Q66.3438,188.7969 66.9688,188.2188 L66.9688,190.9375 Z " fill="#000000"/><text fill="#000000" font-family="sans-serif" font-size="14" lengthAdjust="spacing" textLength="108.0283" x="78" y="190.1436">mw:Application</text><line style="stroke:#181818;stroke-width:0.5;" x1="50" x2="188.0283" y1="201.2969" y2="201.2969"/><line style="stroke:#181818;stroke-width:0.5;" x1="50" x2="188.0283" y1="209.2969" y2="209.2969"/></g><!--class App--><g id="elem_App"><rect codeLine="5" fill="#0000FF" height="48" id="App" rx="2.5" ry="2.5" style="stroke:#181818;stroke-width:0.5;" width="110.2236" x="135" y="44.2969"/><ellipse cx="150" cy="60.2969" fill="#ADD1B2" rx="11" ry="11" style="stroke:#181818;stroke-width:1;"/><path d="M152.9688,65.9375 Q152.3906,66.2344 151.75,66.375 Q151.1094,66.5313 150.4063,66.5313 Q147.9063,66.5313 146.5781,64.8906 Q145.2656,63.2344 145.2656,60.1094 Q145.2656,56.9844 146.5781,55.3281 Q147.9063,53.6719 150.4063,53.6719 Q151.1094,53.6719 151.75,53.8281 Q152.4063,53.9844 152.9688,54.2813 L152.9688,57 Q152.3438,56.4219 151.75,56.1563 Q151.1563,55.875 150.5313,55.875 Q149.1875,55.875 148.5,56.9531 Q147.8125,58.0156 147.8125,60.1094 Q147.8125,62.2031 148.5,63.2813 Q149.1875,64.3438 150.5313,64.3438 Q151.1563,64.3438 151.75,64.0781 Q152.3438,63.7969 152.9688,63.2188 L152.9688,65.9375 Z " fill="#000000"/><text fill="#000000" font-family="sans-serif" font-size="14" lengthAdjust="spacing" textLength="78.2236" x="164" y="65.1436">Application</text><line style="stroke:#181818;stroke-width:0.5;" x1="136" x2="244.2236" y1="76.2969" y2="76.2969"/><line style="stroke:#181818;stroke-width:0.5;" x1="136" x2="244.2236" y1="84.2969" y2="84.2969"/></g><!--class LifecycleManager--><g id="elem_LifecycleManager"><rect codeLine="8" fill="#FFFF00" height="48" id="LifecycleManager" rx="2.5" ry="2.5" style="stroke:#181818;stroke-width:0.5;" width="184.585" x="224.5" y="169.2969"/><ellipse cx="239.5" cy="185.2969" fill="#ADD1B2" rx="11" ry="11" style="stroke:#181818;stroke-width:1;"/><path d="M242.4688,190.9375 Q241.8906,191.2344 241.25,191.375 Q240.6094,191.5313 239.9063,191.5313 Q237.4063,191.5313 236.0781,189.8906 Q234.7656,188.2344 234.7656,185.1094 Q234.7656,181.9844 236.0781,180.3281 Q237.4063,178.6719 239.9063,178.6719 Q240.6094,178.6719 241.25,178.8281 Q241.9063,178.9844 242.4688,179.2813 L242.4688,182 Q241.8438,181.4219 241.25,181.1563 Q240.6563,180.875 240.0313,180.875 Q238.6875,180.875 238,181.9531 Q237.3125,183.0156 237.3125,185.1094 Q237.3125,187.2031 238,188.2813 Q238.6875,189.3438 240.0313,189.3438 Q240.6563,189.3438 241.25,189.0781 Q241.8438,188.7969 242.4688,188.2188 L242.4688,190.9375 Z " fill="#000000"/><text fill="#000000" font-family="sans-serif" font-size="14" lengthAdjust="spacing" textLength="152.585" x="253.5" y="190.1436">mw:LifecycleManager</text><line style="stroke:#181818;stroke-width:0.5;" x1="225.5" x2="408.085" y1="201.2969" y2="201.2969"/><line style="stroke:#181818;stroke-width:0.5;" x1="225.5" x2="408.085" y1="209.2969" y2="209.2969"/></g><!--class ExecMgr--><g id="elem_ExecMgr"><rect codeLine="10" fill="#F1F1F1" height="48" id="ExecMgr" rx="2.5" ry="2.5" style="stroke:#181818;stroke-width:0.5;" width="166.9482" x="427.5" y="294.2969"/><ellipse cx="442.5" cy="310.2969" fill="#ADD1B2" rx="11" ry="11" style="stroke:#181818;stroke-width:1;"/><path d="M445.4688,315.9375 Q444.8906,316.2344 444.25,316.375 Q443.6094,316.5313 442.9063,316.5313 Q440.4063,316.5313 439.0781,314.8906 Q437.7656,313.2344 437.7656,310.1094 Q437.7656,306.9844 439.0781,305.3281 Q440.4063,303.6719 442.9063,303.6719 Q443.6094,303.6719 444.25,303.8281 Q444.9063,303.9844 445.4688,304.2813 L445.4688,307 Q444.8438,306.4219 444.25,306.1563 Q443.6563,305.875 443.0313,305.875 Q441.6875,305.875 441,306.9531 Q440.3125,308.0156 440.3125,310.1094 Q440.3125,312.2031 441,313.2813 Q441.6875,314.3438 443.0313,314.3438 Q443.6563,314.3438 444.25,314.0781 Q444.8438,313.7969 445.4688,313.2188 L445.4688,315.9375 Z " fill="#000000"/><text fill="#000000" font-family="sans-serif" font-size="14" lengthAdjust="spacing" textLength="134.9482" x="456.5" y="315.1436">Execution Manager</text><line style="stroke:#181818;stroke-width:0.5;" x1="428.5" x2="593.4482" y1="326.2969" y2="326.2969"/><line style="stroke:#181818;stroke-width:0.5;" x1="428.5" x2="593.4482" y1="334.2969" y2="334.2969"/></g><!--class OS--><g id="elem_OS"><rect codeLine="12" fill="#F1F1F1" height="48" id="OS" rx="2.5" ry="2.5" style="stroke:#181818;stroke-width:0.5;" width="51.9063" x="146" y="294.2969"/><ellipse cx="161" cy="310.2969" fill="#ADD1B2" rx="11" ry="11" style="stroke:#181818;stroke-width:1;"/><path d="M163.9688,315.9375 Q163.3906,316.2344 162.75,316.375 Q162.1094,316.5313 161.4063,316.5313 Q158.9063,316.5313 157.5781,314.8906 Q156.2656,313.2344 156.2656,310.1094 Q156.2656,306.9844 157.5781,305.3281 Q158.9063,303.6719 161.4063,303.6719 Q162.1094,303.6719 162.75,303.8281 Q163.4063,303.9844 163.9688,304.2813 L163.9688,307 Q163.3438,306.4219 162.75,306.1563 Q162.1563,305.875 161.5313,305.875 Q160.1875,305.875 159.5,306.9531 Q158.8125,308.0156 158.8125,310.1094 Q158.8125,312.2031 159.5,313.2813 Q160.1875,314.3438 161.5313,314.3438 Q162.1563,314.3438 162.75,314.0781 Q163.3438,313.7969 163.9688,313.2188 L163.9688,315.9375 Z " fill="#000000"/><text fill="#000000" font-family="sans-serif" font-size="14" lengthAdjust="spacing" textLength="19.9063" x="175" y="315.1436">OS</text><line style="stroke:#181818;stroke-width:0.5;" x1="147" x2="196.9063" y1="326.2969" y2="326.2969"/><line style="stroke:#181818;stroke-width:0.5;" x1="147" x2="196.9063" y1="334.2969" y2="334.2969"/></g><!--class AppCtx--><g id="elem_AppCtx"><rect codeLine="14" fill="#0000FF" height="48" id="AppCtx" rx="2.5" ry="2.5" style="stroke:#181818;stroke-width:0.5;" width="169.7646" x="482" y="44.2969"/><ellipse cx="497" cy="60.2969" fill="#ADD1B2" rx="11" ry="11" style="stroke:#181818;stroke-width:1;"/><path d="M499.9688,65.9375 Q499.3906,66.2344 498.75,66.375 Q498.1094,66.5313 497.4063,66.5313 Q494.9063,66.5313 493.5781,64.8906 Q492.2656,63.2344 492.2656,60.1094 Q492.2656,56.9844 493.5781,55.3281 Q494.9063,53.6719 497.4063,53.6719 Q498.1094,53.6719 498.75,53.8281 Q499.4063,53.9844 499.9688,54.2813 L499.9688,57 Q499.3438,56.4219 498.75,56.1563 Q498.1563,55.875 497.5313,55.875 Q496.1875,55.875 495.5,56.9531 Q494.8125,58.0156 494.8125,60.1094 Q494.8125,62.2031 495.5,63.2813 Q496.1875,64.3438 497.5313,64.3438 Q498.1563,64.3438 498.75,64.0781 Q499.3438,63.7969 499.9688,63.2188 L499.9688,65.9375 Z " fill="#000000"/><text fill="#000000" font-family="sans-serif" font-size="14" lengthAdjust="spacing" textLength="137.7646" x="511" y="65.1436">Application Context</text><line style="stroke:#181818;stroke-width:0.5;" x1="483" x2="650.7646" y1="76.2969" y2="76.2969"/><line style="stroke:#181818;stroke-width:0.5;" x1="483" x2="650.7646" y1="84.2969" y2="84.2969"/></g><g id="elem_GMN14"><path d="M6,55.7969 L6,80.9297 A0,0 0 0 0 6,80.9297 L99.6362,80.9297 A0,0 0 0 0 99.6362,80.9297 L99.6362,73.7969 L134.86,68.2969 L99.6362,65.7969 L99.6362,65.7969 L89.6362,55.7969 L6,55.7969 A0,0 0 0 0 6,55.7969 " fill="#FEFFDD" style="stroke:#181818;stroke-width:0.5;"/><path d="M89.6362,55.7969 L89.6362,65.7969 L99.6362,65.7969 L89.6362,55.7969 " fill="#FEFFDD" style="stroke:#181818;stroke-width:0.5;"/><text fill="#000000" font-family="sans-serif" font-size="13" lengthAdjust="spacing" textLength="72.6362" x="12" y="72.8638">Application</text></g><g id="elem_GMN17"><path d="M444,180.7969 L444,189.2969 L409.81,193.2969 L444,197.2969 L444,205.9297 A0,0 0 0 0 444,205.9297 L550.4521,205.9297 A0,0 0 0 0 550.4521,205.9297 L550.4521,190.7969 L540.4521,180.7969 L444,180.7969 A0,0 0 0 0 444,180.7969 " fill="#FEFFDD" style="stroke:#181818;stroke-width:0.5;"/><path d="M540.4521,180.7969 L540.4521,190.7969 L550.4521,190.7969 L540.4521,180.7969 " fill="#FEFFDD" style="stroke:#181818;stroke-width:0.5;"/><text fill="#000000" font-family="sans-serif" font-size="13" lengthAdjust="spacing" textLength="85.4521" x="450" y="197.8638">mw::lifecycle</text></g><!--link App to mwApp--><g id="link_App_mwApp"><path codeLine="17" d="M176.65,92.4369 C163.95,114.4269 153.9707,131.7188 141.2907,153.6788 " fill="transparent" id="App-to-mwApp" style="stroke:#181818;stroke-width:1;"/><polygon fill="transparent" points="132.29,169.2669,146.4867,156.6791,136.0947,150.6786,132.29,169.2669" style="stroke:#181818;stroke-width:1;"/><text fill="#000000" font-family="sans-serif" font-size="13" lengthAdjust="spacing" textLength="45.6904" x="159" y="135.3638">&#171;uses&#187;</text></g><!--link App to LifecycleManager--><g id="link_App_LifecycleManager"><path codeLine="18" d="M213.89,92.4369 C236.59,114.4269 266.2404,143.1323 288.9104,165.0923 " fill="transparent" id="App-to-LifecycleManager" style="stroke:#181818;stroke-width:1;"/><polygon fill="#181818" points="293.22,169.2669,289.5387,160.1319,289.6287,165.788,283.9725,165.878,293.22,169.2669" style="stroke:#181818;stroke-width:1;"/><text fill="#000000" font-family="sans-serif" font-size="13" lengthAdjust="spacing" textLength="168.2383" x="262" y="135.3638">manages (run, terminate)</text></g><!--link LifecycleManager to ExecMgr--><g id="link_LifecycleManager_ExecMgr"><path codeLine="20" d="M341.12,217.5069 C357.03,232.0669 378.78,250.5969 400,264.2969 C417.32,275.4669 431.9092,283.2174 450.1492,291.6974 " fill="transparent" id="LifecycleManager-to-ExecMgr" style="stroke:#181818;stroke-width:1;"/><polygon fill="#181818" points="455.59,294.2269,449.1152,286.8055,451.056,292.119,445.7426,294.0598,455.59,294.2269" style="stroke:#181818;stroke-width:1;"/><text fill="#000000" font-family="sans-serif" font-size="13" lengthAdjust="spacing" textLength="192.207" x="401" y="260.3638">reports state (run, terminate)</text></g><!--link LifecycleManager to OS--><g id="link_LifecycleManager_OS"><path codeLine="21" d="M226.66,217.3169 C200.43,225.9269 176.74,236.3069 169,247.2969 C159.55,260.7269 159.5526,273.6101 162.9426,288.3201 " fill="transparent" id="LifecycleManager-to-OS" style="stroke:#181818;stroke-width:1;"/><polygon fill="#181818" points="164.29,294.1669,166.1667,284.4985,163.1672,289.2946,158.371,286.295,164.29,294.1669" style="stroke:#181818;stroke-width:1;"/><text fill="#000000" font-family="sans-serif" font-size="13" lengthAdjust="spacing" textLength="189.6172" x="170" y="260.3638">handles application SIGTERM</text></g><!--link AppCtx to ExecMgr--><g id="link_AppCtx_ExecMgr"><path codeLine="23" d="M579.69,92.5969 C598.71,130.9569 629.23,208.7069 598,264.2969 C591.07,276.6369 585.0388,283.2107 573.0588,290.8507 " fill="transparent" id="AppCtx-to-ExecMgr" style="stroke:#181818;stroke-width:1;"/><polygon fill="#181818" points="568,294.0769,577.739,292.6102,572.2157,291.3884,573.4375,285.8651,568,294.0769" style="stroke:#181818;stroke-width:1;"/><text fill="#000000" font-family="sans-serif" font-size="13" lengthAdjust="spacing" textLength="37.0513" x="612" y="197.8638">starts</text></g><!--link AppCtx to LifecycleManager--><g id="link_AppCtx_LifecycleManager"><path codeLine="25" d="M527.14,92.3169 C502.12,106.4469 469.03,124.5969 439,139.2969 C417.74,149.7069 399.4661,157.9062 378.5761,166.8462 " fill="transparent" id="AppCtx-to-LifecycleManager" style="stroke:#181818;stroke-width:1;"/><polygon fill="#181818" points="373.06,169.2069,382.9079,169.3433,377.6567,167.2397,379.7604,161.9885,373.06,169.2069" style="stroke:#181818;stroke-width:1;"/><text fill="#000000" font-family="sans-serif" font-size="13" lengthAdjust="spacing" textLength="37.0513" x="472" y="135.3638">starts</text></g><!--SRC=[RP5FQuGm4CNl-HJ3zj925ppB8fHbBOMAK4llmHtTG8oIH7Hf-zqx2MhzbrEO-RrvRn8hh4Hu5mNczvnksTrOhE1BOCTOBhanSAYwyALffCYv5RKw03TGTLI1XvXE44pWcl9CG2UEuPlzpWTEZWbNl4Jj-NLnOt3fCM_TU9ZBN3KfzKIbcI-dsLumEDVAOc_7W6VRBpEwqCVZJpJi6CBfr1eqKJHqectC42f_C_2eM_KC5dKb5BVunDW6TXE6n2JKsDJQ6Z2MyAryLvrc9BnnTPNao6UhPM-ldvUFnE_WzbfQaGKvBPexcuoKgYcFnC92NRXtOW2pLsIehk2G0TIYl7boFP5azDkX7Cl_mZy0]--></g></svg>