<svg xmlns="http://www.w3.org/2000/svg" xmlns:xlink="http://www.w3.org/1999/xlink" contentStyleType="text/css" data-diagram-type="CLASS" height="661px" preserveAspectRatio="none" style="width:2130px;height:661px;background:#FFFFFF;" version="1.1" viewBox="0 0 2130 661" width="2130px" zoomAndPan="magnify"><title>Structural View</title><defs/><g><text fill="#000000" font-family="sans-serif" font-size="14" font-weight="bold" lengthAdjust="spacing" textLength="122.6914" x="997.1459" y="22.9951">Structural View</text><!--class IApplication--><g id="elem_IApplication"><rect codeLine="4" fill="#F1F1F1" height="91.1875" id="IApplication" rx="2.5" ry="2.5" style="stroke:#181818;stroke-width:0.5;" width="339.5986" x="275.2" y="544.2969"/><ellipse cx="327.2283" cy="565.5938" fill="#B4A7E5" rx="11" ry="11" style="stroke:#181818;stroke-width:1;"/><path d="M323.1502,561.3594 L323.1502,559.2031 L330.5408,559.2031 L330.5408,561.3594 L328.0721,561.3594 L328.0721,569.4375 L330.5408,569.4375 L330.5408,571.5938 L323.1502,571.5938 L323.1502,569.4375 L325.6189,569.4375 L325.6189,561.3594 L323.1502,561.3594 Z " fill="#000000"/><text fill="#000000" font-family="sans-serif" font-size="14" font-style="italic" lengthAdjust="spacing" textLength="79.7207" x="421.389" y="562.292">&#171;interface&#187;</text><text fill="#000000" font-family="sans-serif" font-size="14" font-style="italic" lengthAdjust="spacing" textLength="227.042" x="347.7283" y="578.5889">score::mw::lifecycle::Application</text><line style="stroke:#181818;stroke-width:0.5;" x1="276.2" x2="613.7986" y1="586.8906" y2="586.8906"/><line style="stroke:#181818;stroke-width:0.5;" x1="276.2" x2="613.7986" y1="594.8906" y2="594.8906"/><ellipse cx="286.2" cy="608.5391" fill="#84BE84" rx="3" ry="3" style="stroke:#038048;stroke-width:1;"/><text fill="#000000" font-family="sans-serif" font-size="14" font-style="italic" lengthAdjust="spacing" textLength="313.5986" x="295.2" y="611.8857">initialize(const ApplicationContext&amp;): int32_t</text><ellipse cx="286.2" cy="624.8359" fill="#84BE84" rx="3" ry="3" style="stroke:#038048;stroke-width:1;"/><text fill="#000000" font-family="sans-serif" font-size="14" font-style="italic" lengthAdjust="spacing" textLength="290.9033" x="295.2" y="628.1826">run(amp::stop_token stop_token): int32_t</text></g><!--class ApplicationContext--><g id="elem_ApplicationContext"><rect codeLine="9" fill="#F1F1F1" height="129.4844" id="ApplicationContext" rx="2.5" ry="2.5" style="stroke:#181818;stroke-width:0.5;" width="527.8398" x="1279.2" y="525.2969"/><ellipse cx="1397.8035" cy="541.2969" fill="#ADD1B2" rx="11" ry="11" style="stroke:#181818;stroke-width:1;"/><path d="M1400.7723,546.9375 Q1400.1941,547.2344 1399.5535,547.375 Q1398.9129,547.5313 1398.2098,547.5313 Q1395.7098,547.5313 1394.3816,545.8906 Q1393.0691,544.2344 1393.0691,541.1094 Q1393.0691,537.9844 1394.3816,536.3281 Q1395.7098,534.6719 1398.2098,534.6719 Q1398.9129,534.6719 1399.5535,534.8281 Q1400.2098,534.9844 1400.7723,535.2813 L1400.7723,538 Q1400.1473,537.4219 1399.5535,537.1563 Q1398.9598,536.875 1398.3348,536.875 Q1396.991,536.875 1396.3035,537.9531 Q1395.616,539.0156 1395.616,541.1094 Q1395.616,543.2031 1396.3035,544.2813 Q1396.991,545.3438 1398.3348,545.3438 Q1398.9598,545.3438 1399.5535,545.0781 Q1400.1473,544.7969 1400.7723,544.2188 L1400.7723,546.9375 Z " fill="#000000"/><text fill="#000000" font-family="sans-serif" font-size="14" lengthAdjust="spacing" textLength="282.1328" x="1418.3035" y="546.1436">score::mw::lifecycle::ApplicationContext</text><line style="stroke:#181818;stroke-width:0.5;" x1="1280.2" x2="1806.0398" y1="557.2969" y2="557.2969"/><ellipse cx="1290.2" cy="570.9453" fill="#84BE84" rx="3" ry="3" style="stroke:#038048;stroke-width:1;"/><text fill="#000000" font-family="sans-serif" font-size="14" lengthAdjust="spacing" textLength="501.8398" x="1299.2" y="574.292">ApplicationContext(const int32_t argc, const score::StringLiteral argv[])</text><ellipse cx="1290.2" cy="587.2422" fill="#84BE84" rx="3" ry="3" style="stroke:#038048;stroke-width:1;"/><text fill="#000000" font-family="sans-serif" font-size="14" lengthAdjust="spacing" textLength="461.4736" x="1299.2" y="590.5889">get_arguments(): const std::vector&lt;std::string&gt;&amp; const noexcept</text><ellipse cx="1290.2" cy="603.5391" fill="#84BE84" rx="3" ry="3" style="stroke:#038048;stroke-width:1;"/><text fill="#000000" font-family="sans-serif" font-size="14" lengthAdjust="spacing" textLength="494.9902" x="1299.2" y="606.8857">get_argument(const amp::string_view flag): std::string const noexcept</text><line style="stroke:#181818;stroke-width:1;" x1="1280.2" x2="1806.0398" y1="614.1875" y2="614.1875"/><rect fill="transparent" height="6" style="stroke:#C82930;stroke-width:1;" width="6" x="1287.2" y="624.8359"/><text fill="#000000" font-family="sans-serif" font-size="14" lengthAdjust="spacing" textLength="230.583" x="1299.2" y="631.1826">m_args: std::vector&lt;std::string&gt;</text><rect fill="transparent" height="6" style="stroke:#C82930;stroke-width:1;" width="6" x="1287.2" y="641.1328"/><text fill="#000000" font-family="sans-serif" font-size="14" lengthAdjust="spacing" textLength="166.2773" x="1299.2" y="647.4795">m_app_path: std::string</text></g><!--class LifecycleManager--><g id="elem_LifecycleManager"><rect codeLine="18" fill="#F1F1F1" height="227.2656" id="LifecycleManager" rx="2.5" ry="2.5" style="stroke:#181818;stroke-width:0.5;" width="529.5625" x="180.2" y="221.2969"/><ellipse cx="304.9319" cy="237.2969" fill="#ADD1B2" rx="11" ry="11" style="stroke:#181818;stroke-width:1;"/><path d="M307.9007,242.9375 Q307.3226,243.2344 306.6819,243.375 Q306.0413,243.5313 305.3382,243.5313 Q302.8382,243.5313 301.5101,241.8906 Q300.1976,240.2344 300.1976,237.1094 Q300.1976,233.9844 301.5101,232.3281 Q302.8382,230.6719 305.3382,230.6719 Q306.0413,230.6719 306.6819,230.8281 Q307.3382,230.9844 307.9007,231.2813 L307.9007,234 Q307.2757,233.4219 306.6819,233.1563 Q306.0882,232.875 305.4632,232.875 Q304.1194,232.875 303.4319,233.9531 Q302.7444,235.0156 302.7444,237.1094 Q302.7444,239.2031 303.4319,240.2813 Q304.1194,241.3438 305.4632,241.3438 Q306.0882,241.3438 306.6819,241.0781 Q307.2757,240.7969 307.9007,240.2188 L307.9007,242.9375 Z " fill="#000000"/><text fill="#000000" font-family="sans-serif" font-size="14" lengthAdjust="spacing" textLength="271.5986" x="325.4319" y="242.1436">score::mw::lifecycle::LifecycleManager</text><line style="stroke:#181818;stroke-width:0.5;" x1="181.2" x2="708.7625" y1="253.2969" y2="253.2969"/><ellipse cx="191.2" cy="266.9453" fill="#84BE84" rx="3" ry="3" style="stroke:#038048;stroke-width:1;"/><text fill="#000000" font-family="sans-serif" font-size="14" lengthAdjust="spacing" textLength="494.3682" x="200.2" y="270.292">LifecycleManager(std::unique_ptr&lt;score::os::Signal&gt; signal_interface)</text><ellipse cx="191.2" cy="283.2422" fill="#84BE84" rx="3" ry="3" style="stroke:#038048;stroke-width:1;"/><text fill="#000000" font-family="sans-serif" font-size="14" lengthAdjust="spacing" textLength="384.8018" x="200.2" y="286.5889">LifecycleManager(LifecycleManager&amp;&amp; other) = delete</text><ellipse cx="191.2" cy="299.5391" fill="#84BE84" rx="3" ry="3" style="stroke:#038048;stroke-width:1;"/><text fill="#000000" font-family="sans-serif" font-size="14" lengthAdjust="spacing" textLength="416.2539" x="200.2" y="302.8857">LifecycleManager(const LifecycleManager&amp; other) = delete</text><ellipse cx="191.2" cy="315.8359" fill="#84BE84" rx="3" ry="3" style="stroke:#038048;stroke-width:1;"/><text fill="#000000" font-family="sans-serif" font-size="14" lengthAdjust="spacing" textLength="472.1104" x="200.2" y="319.1826">LifecycleManager&amp; operator=(LifecycleManager&amp;&amp; other) = delete</text><ellipse cx="191.2" cy="332.1328" fill="#84BE84" rx="3" ry="3" style="stroke:#038048;stroke-width:1;"/><text fill="#000000" font-family="sans-serif" font-size="14" lengthAdjust="spacing" textLength="503.5625" x="200.2" y="335.4795">LifecycleManager&amp; operator=(const LifecycleManager&amp; other) = delete</text><ellipse cx="191.2" cy="348.4297" fill="#84BE84" rx="3" ry="3" style="stroke:#038048;stroke-width:1;"/><text fill="#000000" font-family="sans-serif" font-size="14" lengthAdjust="spacing" textLength="407.5928" x="200.2" y="351.7764">run(Application&amp; app, const ApplicationContext&amp;): int32_t</text><line style="stroke:#181818;stroke-width:1;" x1="181.2" x2="708.7625" y1="359.0781" y2="359.0781"/><rect fill="transparent" height="6" style="stroke:#C82930;stroke-width:1;" width="6" x="188.2" y="369.7266"/><text fill="#000000" font-family="sans-serif" font-size="14" lengthAdjust="spacing" textLength="238.4102" x="200.2" y="376.0732">m_stop_source: amp::stop_source</text><rect fill="transparent" height="6" style="stroke:#C82930;stroke-width:1;" width="6" x="188.2" y="386.0234"/><text fill="#000000" font-family="sans-serif" font-size="14" lengthAdjust="spacing" textLength="141.3809" x="200.2" y="392.3701">m_app: Application*</text><rect fill="transparent" height="6" style="stroke:#C82930;stroke-width:1;" width="6" x="188.2" y="402.3203"/><text fill="#000000" font-family="sans-serif" font-size="14" lengthAdjust="spacing" textLength="153.5693" x="200.2" y="408.667">m_signal_set: sigset_t</text><rect fill="transparent" height="6" style="stroke:#C82930;stroke-width:1;" width="6" x="188.2" y="418.6172"/><text fill="#000000" font-family="sans-serif" font-size="14" lengthAdjust="spacing" textLength="262.1855" x="200.2" y="424.9639">m_signal_handler_thread: std::thread</text><rect fill="transparent" height="6" style="stroke:#C82930;stroke-width:1;" width="6" x="188.2" y="434.9141"/><text fill="#000000" font-family="sans-serif" font-size="14" lengthAdjust="spacing" textLength="302.9414" x="200.2" y="441.2607">signal_: std::unique_ptr&lt;score::os::Signal&gt;</text></g><!--class AasApplicationContainer--><g id="elem_AasApplicationContainer"><rect codeLine="33" fill="#F1F1F1" height="178.375" id="AasApplicationContainer" rx="2.5" ry="2.5" style="stroke:#181818;stroke-width:0.5;" width="966.4404" x="1060.2" y="245.7969"/><ellipse cx="1378.7171" cy="261.7969" fill="#ADD1B2" rx="11" ry="11" style="stroke:#181818;stroke-width:1;"/><path d="M1381.6858,267.4375 Q1381.1077,267.7344 1380.4671,267.875 Q1379.8265,268.0313 1379.1233,268.0313 Q1376.6233,268.0313 1375.2952,266.3906 Q1373.9827,264.7344 1373.9827,261.6094 Q1373.9827,258.4844 1375.2952,256.8281 Q1376.6233,255.1719 1379.1233,255.1719 Q1379.8265,255.1719 1380.4671,255.3281 Q1381.1233,255.4844 1381.6858,255.7813 L1381.6858,258.5 Q1381.0608,257.9219 1380.4671,257.6563 Q1379.8733,257.375 1379.2483,257.375 Q1377.9046,257.375 1377.2171,258.4531 Q1376.5296,259.5156 1376.5296,261.6094 Q1376.5296,263.7031 1377.2171,264.7813 Q1377.9046,265.8438 1379.2483,265.8438 Q1379.8733,265.8438 1380.4671,265.5781 Q1381.0608,265.2969 1381.6858,264.7188 L1381.6858,267.4375 Z " fill="#000000"/><text fill="#000000" font-family="sans-serif" font-size="14" lengthAdjust="spacing" textLength="320.9063" x="1399.2171" y="266.6436">score::mw::lifecycle::AasApplicationContainer</text><line style="stroke:#181818;stroke-width:0.5;" x1="1061.2" x2="2025.6404" y1="277.7969" y2="277.7969"/><ellipse cx="1071.2" cy="291.4453" fill="#84BE84" rx="3" ry="3" style="stroke:#038048;stroke-width:1;"/><text fill="#000000" font-family="sans-serif" font-size="14" lengthAdjust="spacing" textLength="376.4141" x="1080.2" y="294.792">initialize(const ApplicationContext&amp;): int32_t override</text><ellipse cx="1071.2" cy="307.7422" fill="#84BE84" rx="3" ry="3" style="stroke:#038048;stroke-width:1;"/><text fill="#000000" font-family="sans-serif" font-size="14" lengthAdjust="spacing" textLength="353.7188" x="1080.2" y="311.0889">run(amp::stop_token stop_token): int32_t override</text><ellipse cx="1071.2" cy="324.0391" fill="#84BE84" rx="3" ry="3" style="stroke:#038048;stroke-width:1;"/><text fill="#000000" font-family="sans-serif" font-size="14" lengthAdjust="spacing" textLength="940.4404" x="1080.2" y="327.3857">AasApplicationContainer(const int32_t argc, const score::StringLiteral* argv, const std::size_t count_expected_applications): noexcept</text><ellipse cx="1071.2" cy="340.3359" fill="#84BE84" rx="3" ry="3" style="stroke:#038048;stroke-width:1;"/><text fill="#000000" font-family="sans-serif" font-size="14" lengthAdjust="spacing" textLength="432.5303" x="1080.2" y="343.6826">With&lt;App,...Args&gt;(Args&amp;&amp;.. args): AasApplicationContainer&amp;</text><ellipse cx="1071.2" cy="356.6328" fill="#84BE84" rx="3" ry="3" style="stroke:#038048;stroke-width:1;"/><text fill="#000000" font-family="sans-serif" font-size="14" lengthAdjust="spacing" textLength="119.3418" x="1080.2" y="359.9795">Launch(): int32_t</text><line style="stroke:#181818;stroke-width:1;" x1="1061.2" x2="2025.6404" y1="367.2813" y2="367.2813"/><rect fill="transparent" height="6" style="stroke:#C82930;stroke-width:1;" width="6" x="1068.2" y="377.9297"/><text fill="#000000" font-family="sans-serif" font-size="14" lengthAdjust="spacing" textLength="351.3125" x="1080.2" y="384.2764">context_: score::mw::lifecycle::ApplicationContext</text><rect fill="transparent" height="6" style="stroke:#C82930;stroke-width:1;" width="6" x="1068.2" y="394.2266"/><text fill="#000000" font-family="sans-serif" font-size="14" lengthAdjust="spacing" textLength="407.5859" x="1080.2" y="400.5732">applications_: std::vector&lt;std::unique_ptr&lt;Application&gt;&gt;</text><rect fill="transparent" height="6" style="stroke:#C82930;stroke-width:1;" width="6" x="1068.2" y="410.5234"/><text fill="#000000" font-family="sans-serif" font-size="14" lengthAdjust="spacing" textLength="290.0078" x="1080.2" y="416.8701">count_expected_applications_: std::size_t</text></g><!--class RunTemplate--><g id="elem_RunTemplate"><rect codeLine="45" fill="#F1F1F1" height="96.8906" id="RunTemplate" rx="2.5" ry="2.5" style="stroke:#181818;stroke-width:0.5;" width="418.0752" x="236.2" y="47.2969"/><ellipse cx="377.0105" cy="63.2969" fill="#ADD1B2" rx="11" ry="11" style="stroke:#181818;stroke-width:1;"/><path d="M379.9793,68.9375 Q379.4012,69.2344 378.7605,69.375 Q378.1199,69.5313 377.4168,69.5313 Q374.9168,69.5313 373.5887,67.8906 Q372.2762,66.2344 372.2762,63.1094 Q372.2762,59.9844 373.5887,58.3281 Q374.9168,56.6719 377.4168,56.6719 Q378.1199,56.6719 378.7605,56.8281 Q379.4168,56.9844 379.9793,57.2813 L379.9793,60 Q379.3543,59.4219 378.7605,59.1563 Q378.1668,58.875 377.5418,58.875 Q376.198,58.875 375.5105,59.9531 Q374.823,61.0156 374.823,63.1094 Q374.823,65.2031 375.5105,66.2813 Q376.198,67.3438 377.5418,67.3438 Q378.1668,67.3438 378.7605,67.0781 Q379.3543,66.7969 379.9793,66.2188 L379.9793,68.9375 Z " fill="#000000"/><text fill="#000000" font-family="sans-serif" font-size="14" lengthAdjust="spacing" textLength="27.4736" x="397.5105" y="68.1436">Run</text><rect fill="#FFFFFF" height="15.9688" style="stroke:#181818;stroke-width:1;stroke-dasharray:2.0,2.0;" width="98.4805" x="558.7947" y="44.2969"/><text fill="#000000" font-family="sans-serif" font-size="12" font-style="italic" lengthAdjust="spacing" textLength="96.4805" x="559.7947" y="56.4355">ApplicationType</text><line style="stroke:#181818;stroke-width:0.5;" x1="237.2" x2="653.2752" y1="79.2969" y2="79.2969"/><ellipse cx="247.2" cy="92.9453" fill="#84BE84" rx="3" ry="3" style="stroke:#038048;stroke-width:1;"/><text fill="#000000" font-family="sans-serif" font-size="14" lengthAdjust="spacing" textLength="392.0752" x="256.2" y="96.292">Run(const int32_t argc, const score::StringLiteral* argv)</text><ellipse cx="247.2" cy="109.2422" fill="#84BE84" rx="3" ry="3" style="stroke:#038048;stroke-width:1;"/><text fill="#000000" font-family="sans-serif" font-size="14" lengthAdjust="spacing" textLength="319.6895" x="256.2" y="112.5889">AsPosixProcess(Args&amp;&amp;... args): int32_t const</text><line style="stroke:#181818;stroke-width:1;" x1="237.2" x2="653.2752" y1="119.8906" y2="119.8906"/><rect fill="transparent" height="6" style="stroke:#C82930;stroke-width:1;" width="6" x="244.2" y="130.5391"/><text fill="#000000" font-family="sans-serif" font-size="14" lengthAdjust="spacing" textLength="202.4941" x="256.2" y="136.8857">context_: ApplicationContext</text></g><g id="elem_GMN14"><path d="M745.2,280.2969 L745.2,330.7969 L710.32,334.7969 L745.2,338.7969 L745.2,389.0938 A0,0 0 0 0 745.2,389.0938 L1024.721,389.0938 A0,0 0 0 0 1024.721,389.0938 L1024.721,290.2969 L1014.721,280.2969 L745.2,280.2969 A0,0 0 0 0 745.2,280.2969 " fill="#FEFFDD" style="stroke:#181818;stroke-width:0.5;"/><path d="M1014.721,280.2969 L1014.721,290.2969 L1024.721,290.2969 L1014.721,280.2969 " fill="#FEFFDD" style="stroke:#181818;stroke-width:0.5;"/><text fill="#000000" font-family="sans-serif" font-size="13" lengthAdjust="spacing" textLength="30.7734" x="751.2" y="297.3638">Note</text><line style="stroke:#181818;stroke-width:1;" x1="746.2" x2="1023.721" y1="300.4297" y2="300.4297"/><text fill="#000000" font-family="sans-serif" font-size="13" lengthAdjust="spacing" textLength="234.7236" x="751.2" y="316.4966">Implementation is platform specific.</text><text fill="#000000" font-family="sans-serif" font-size="13" lengthAdjust="spacing" textLength="148.7891" x="751.2" y="331.6294">It typically implements</text><text fill="#000000" font-family="sans-serif" font-size="13" lengthAdjust="spacing" textLength="258.521" x="751.2" y="346.7622">a (POSIX) signal handling as we expect,</text><text fill="#000000" font-family="sans-serif" font-size="13" lengthAdjust="spacing" textLength="172.9102" x="751.2" y="361.895">that termination of apps is</text><text fill="#000000" font-family="sans-serif" font-size="13" lengthAdjust="spacing" textLength="251.9575" x="751.2" y="377.0278">done via signaling in all environments.</text></g><g id="elem_GMN17"><path d="M689.7,64.2969 L689.7,91.7969 L654.5,95.7969 L689.7,99.7969 L689.7,127.6953 A0,0 0 0 0 689.7,127.6953 L952.2029,127.6953 A0,0 0 0 0 952.2029,127.6953 L952.2029,74.2969 L942.2029,64.2969 L689.7,64.2969 A0,0 0 0 0 689.7,64.2969 " fill="#FEFFDD" style="stroke:#181818;stroke-width:0.5;"/><path d="M942.2029,64.2969 L942.2029,74.2969 L952.2029,74.2969 L942.2029,64.2969 " fill="#FEFFDD" style="stroke:#181818;stroke-width:0.5;"/><text fill="#000000" font-family="sans-serif" font-size="13" lengthAdjust="spacing" textLength="30.7734" x="695.7" y="81.3638">Note</text><line style="stroke:#181818;stroke-width:1;" x1="690.7" x2="951.2029" y1="84.4297" y2="84.4297"/><text fill="#000000" font-family="sans-serif" font-size="13" lengthAdjust="spacing" textLength="190.0044" x="695.7" y="100.4966">Enable the easy usage of our</text><text fill="#000000" font-family="sans-serif" font-size="13" lengthAdjust="spacing" textLength="241.5029" x="695.7" y="115.6294">application in different environments</text></g><!--link AasApplicationContainer to IApplication--><g id="link_AasApplicationContainer_IApplication"><path codeLine="53" d="M1260.08,423.8069 C1173.64,448.9169 1077.98,474.9569 989.2,495.2969 C864.97,523.7669 740.7799,545.1448 633.0199,561.7548 " fill="transparent" id="AasApplicationContainer-to-IApplication" style="stroke:#181818;stroke-width:1;"/><polygon fill="transparent" points="615.23,564.4969,633.9339,567.6847,632.1059,555.8248,615.23,564.4969" style="stroke:#181818;stroke-width:1;"/><text fill="#000000" font-family="sans-serif" font-size="13" lengthAdjust="spacing" textLength="76.9082" x="1050.2" y="491.3638">implements</text></g><!--link LifecycleManager to IApplication--><g id="link_LifecycleManager_IApplication"><path codeLine="54" d="M445.2,448.6069 C445.2,482.3369 445.2,511.3869 445.2,538.0069 " fill="transparent" id="LifecycleManager-to-IApplication" style="stroke:#181818;stroke-width:1;"/><polygon fill="#181818" points="445.2,544.0069,449.2,535.0069,445.2,539.0069,441.2,535.0069,445.2,544.0069" style="stroke:#181818;stroke-width:1;"/><text fill="#000000" font-family="sans-serif" font-size="13" lengthAdjust="spacing" textLength="59.8584" x="446.2" y="491.3638">manages</text></g><!--link LifecycleManager to ApplicationContext--><g id="link_LifecycleManager_ApplicationContext"><path codeLine="55" d="M710.43,443.0769 C716.06,444.8769 721.65,446.6169 727.2,448.2969 C907.62,502.8569 1111.3533,537.5892 1272.9833,559.2692 " fill="transparent" id="LifecycleManager-to-ApplicationContext" style="stroke:#181818;stroke-width:1;"/><polygon fill="#181818" points="1278.93,560.0669,1270.5417,554.9059,1273.9744,559.4022,1269.4781,562.8349,1278.93,560.0669" style="stroke:#181818;stroke-width:1;"/><text fill="#000000" font-family="sans-serif" font-size="13" lengthAdjust="spacing" textLength="29.7832" x="903.2" y="491.3638">uses</text></g><!--link AasApplicationContainer to ApplicationContext--><g id="link_AasApplicationContainer_ApplicationContext"><path codeLine="56" d="M1543.2,423.9269 C1543.2,457.2969 1543.2,488.6069 1543.2,519.2769 " fill="transparent" id="AasApplicationContainer-to-ApplicationContext" style="stroke:#181818;stroke-width:1;"/><polygon fill="#181818" points="1543.2,525.2769,1547.2,516.2769,1543.2,520.2769,1539.2,516.2769,1543.2,525.2769" style="stroke:#181818;stroke-width:1;"/><text fill="#000000" font-family="sans-serif" font-size="13" lengthAdjust="spacing" textLength="29.7832" x="1544.2" y="491.3638">uses</text></g><!--link RunTemplate to LifecycleManager--><g id="link_RunTemplate_LifecycleManager"><path codeLine="57" d="M445.2,144.4769 C445.2,166.6369 445.2,188.0269 445.2,215.0269 " fill="transparent" id="RunTemplate-to-LifecycleManager" style="stroke:#181818;stroke-width:1;"/><polygon fill="#181818" points="445.2,221.0269,449.2,212.0269,445.2,216.0269,441.2,212.0269,445.2,221.0269" style="stroke:#181818;stroke-width:1;"/><text fill="#000000" font-family="sans-serif" font-size="13" lengthAdjust="spacing" textLength="95.3228" x="446.2" y="187.3638">creates &amp; runs</text></g><!--link RunTemplate to IApplication--><g id="link_RunTemplate_IApplication"><path codeLine="58" d="M235.75,117.4469 C170.5,134.8869 105.22,166.0669 65.2,221.2969 C6,302.9869 7.54,365.5069 65.2,448.2969 C112.73,516.5469 191.5875,550.3612 268.9775,568.4512 " fill="transparent" id="RunTemplate-to-IApplication" style="stroke:#181818;stroke-width:1;"/><polygon fill="#181818" points="274.82,569.8169,266.9667,563.8733,269.9512,568.6788,265.1458,571.6633,274.82,569.8169" style="stroke:#181818;stroke-width:1;"/><text fill="#000000" font-family="sans-serif" font-size="13" lengthAdjust="spacing" textLength="95.3228" x="66.2" y="339.3638">creates &amp; runs</text></g><!--link RunTemplate to ApplicationContext--><g id="link_RunTemplate_ApplicationContext"><path codeLine="59" d="M654.34,141.7769 C660.35,142.6769 666.31,143.5169 672.2,144.2969 C823.57,164.2669 1939.3,110.3469 2044.2,221.2969 C2113.51,294.6069 2105.15,367.8969 2044.2,448.2969 C2013.23,489.1469 1917.0954,520.0878 1813.1454,543.3278 " fill="transparent" id="RunTemplate-to-ApplicationContext" style="stroke:#181818;stroke-width:1;"/><polygon fill="#181818" points="1807.29,544.6369,1816.9459,546.5769,1812.1695,543.546,1815.2004,538.7696,1807.29,544.6369" style="stroke:#181818;stroke-width:1;"/><text fill="#000000" font-family="sans-serif" font-size="13" lengthAdjust="spacing" textLength="29.7832" x="2093.2" y="339.3638">uses</text></g><!--SRC=[dLPDR-Cs4BthLmnoKErjx4Dx4x82WaKF0RPjiBje2xI5mAN75b6PLCcH4tSt_xr3Yh8PsKesyS6IE1zlvirmI5BK87masqdgh6ZWDuLtMVOTt6X2knOI7GYzWdUDS0vTfePbkBYwEdoKvL_QIMEnABPtHT6eDSgzRFZpkcqR9GKfeoz0EBX95k1B1lpx7fHMf4IZ_iEPDDeH94hl38FSKpulM8r-_A4Y-28-Ex92qaEqjvsUYMrR58vCMv7v1pKSNyzRFcIPz3d1nRE1nn12_AVBXonEHJ6R0LtOZRo4VYs2Cl5ARzuhvf6vPuNTdt_FexyDKiKhtHOrkHbd4IrfLHGxb6JiLNXtmKUPHxasU2-nfJDUOZoHAczLxRZSi6x4XlqdtixvMYpw1sozGrTCHd9KQzkg5LG_Slqiy- -7rv-55XkqWVVnue7riM0Me3gj_ksmQeaZwq6COxRLHekc11UUrQ5zvrE-nWjv3ePgj7Du2ojia73AikVlnFuRpLclvOvWOj- -FeRKoSl2yVifwUOSk913upwvDSTz4ZQXCvsLMC1nX_OhQPiKgTytH_k-K0wfy4NZvu1n5DOydXgq5TKMnIgsMlyHLQDY53tP6i-F1U5630YbOuzEo5uxvimEhLKhVEcG6zbDHFN2sVGc3AVBT0OvJeGjfUaqLNZVyY30bI_cWEKugD4q-brHVSNXN2wNosiU8kNC_-VvSkdzUuE9SFEXoKMdPJsRQZdPq-Xh_OrJFHgcOLTdHblIDOcFiZpWJf8mUElfIXhiGwTJNv_sBPQXZrZm2RTj8mWFlSDhhwhOCDgktQrnwlxM6ZxHtO7r0-s3r-1lYjCpx3tuky87RFfSQzMwR6eRB1PVoyVdFyDocXWEkEnamYyM9-hR89hGFNCq5z3vIyjqH4zPfMNmcYUWV2Bpb26-8UL-TvvQZA9_HdiwaamRrh5gK_FkNfy44khqYudZEzRjPc2sHrSEFDBQs2quxbArLdBPAnBGlcNWfjcdzV0o0RFRNp_U_36FCnJ2iFNt0sxJEuI-uI-3BjM2FQ7TAjr3SgIy3nn31_dAQ8IT4j6LTw8qC2gWtYbhT81TPiYtJP_lEEk4hhC9_wJ5PxxAye46ADoUcMDkl24VDdqoIJ4OUQNMQxIC-GZ_2Fy_]--></g></svg>