<svg xmlns="http://www.w3.org/2000/svg" xmlns:xlink="http://www.w3.org/1999/xlink" contentStyleType="text/css" data-diagram-type="DESCRIPTION" height="362px" preserveAspectRatio="none" style="width:430px;height:362px;background:#FFFFFF;" version="1.1" viewBox="0 0 430 362" width="430px" zoomAndPan="magnify"><title>Example Run Targets</title><defs/><g><text fill="#000000" font-family="sans-serif" font-size="14" font-weight="bold" lengthAdjust="spacing" textLength="167.8496" x="124.5664" y="22.9951">Example Run Targets</text><!--entity startup--><g id="elem_startup"><rect fill="#87CEEB" height="52.5938" rx="2.5" ry="2.5" style="stroke:#181818;stroke-width:0.5;" width="110.6484" x="7" y="174.2969"/><text fill="#000000" font-family="sans-serif" font-size="14" font-style="italic" lengthAdjust="spacing" textLength="88.6484" x="18" y="197.292">&#171;run-target&#187;</text><text fill="#000000" font-family="sans-serif" font-size="14" lengthAdjust="spacing" textLength="51.96" x="36.3442" y="213.5889">Startup</text></g><!--entity log--><g id="elem_log"><rect fill="#F1F1F1" height="52.5938" rx="2.5" ry="2.5" style="stroke:#181818;stroke-width:0.5;" width="118.4824" x="153.5" y="304.2969"/><text fill="#000000" font-family="sans-serif" font-size="14" font-style="italic" lengthAdjust="spacing" textLength="96.4824" x="164.5" y="327.292">&#171;component&#187;</text><text fill="#000000" font-family="sans-serif" font-size="14" lengthAdjust="spacing" textLength="88.751" x="168.3657" y="343.5889">Log Daemon</text></g><!--entity full--><g id="elem_full"><rect fill="#87CEEB" height="52.5938" rx="2.5" ry="2.5" style="stroke:#181818;stroke-width:0.5;" width="110.6484" x="233" y="44.2969"/><text fill="#000000" font-family="sans-serif" font-size="14" font-style="italic" lengthAdjust="spacing" textLength="88.6484" x="244" y="67.292">&#171;run-target&#187;</text><text fill="#000000" font-family="sans-serif" font-size="14" lengthAdjust="spacing" textLength="24.7051" x="275.9717" y="83.5889">Full</text></g><!--entity appa--><g id="elem_appa"><rect fill="#F1F1F1" height="52.5938" rx="2.5" ry="2.5" style="stroke:#181818;stroke-width:0.5;" width="118.4824" x="153.5" y="174.2969"/><text fill="#000000" font-family="sans-serif" font-size="14" font-style="italic" lengthAdjust="spacing" textLength="96.4824" x="164.5" y="197.292">&#171;component&#187;</text><text fill="#000000" font-family="sans-serif" font-size="14" lengthAdjust="spacing" textLength="41.3779" x="192.0522" y="213.5889">App A</text></g><!--entity appb--><g id="elem_appb"><rect fill="#F1F1F1" height="52.5938" rx="2.5" ry="2.5" style="stroke:#181818;stroke-width:0.5;" width="118.4824" x="306.5" y="174.2969"/><text fill="#000000" font-family="sans-serif" font-size="14" font-style="italic" lengthAdjust="spacing" textLength="96.4824" x="317.5" y="197.292">&#171;component&#187;</text><text fill="#000000" font-family="sans-serif" font-size="14" lengthAdjust="spacing" textLength="41.4053" x="345.0386" y="213.5889">App B</text></g><!--link startup to log--><g id="link_startup_log"><path d="M82.28,227.5369 C94.21,242.1569 110.21,260.2869 126.5,274.2969 C139.03,285.0769 148.7324,292.1345 162.4724,300.8445 " fill="transparent" id="startup-to-log" style="stroke:#181818;stroke-width:1;"/><polygon fill="#181818" points="167.54,304.0569,162.0802,295.8599,163.317,301.3799,157.797,302.6166,167.54,304.0569" style="stroke:#181818;stroke-width:1;"/><text fill="#000000" font-family="sans-serif" font-size="13" lengthAdjust="spacing" textLength="76.0894" x="127.5" y="270.3638">depends on</text></g><!--link full to appa--><g id="link_full_appa"><path d="M259.36,97.3969 C250.72,106.1769 241.88,116.5169 235.5,127.2969 C226.95,141.7269 222.6852,153.856 219.0752,168.296 " fill="transparent" id="full-to-appa" style="stroke:#181818;stroke-width:1;"/><polygon fill="#181818" points="217.62,174.1169,223.6834,166.3557,218.8327,169.2662,215.9223,164.4154,217.62,174.1169" style="stroke:#181818;stroke-width:1;"/><text fill="#000000" font-family="sans-serif" font-size="13" lengthAdjust="spacing" textLength="76.0894" x="236.5" y="140.3638">depends on</text></g><!--link full to appb--><g id="link_full_appb"><path d="M303.9,97.3969 C317.33,119.7169 333.6173,146.7954 347.0373,169.1054 " fill="transparent" id="full-to-appb" style="stroke:#181818;stroke-width:1;"/><polygon fill="#181818" points="350.13,174.2469,348.9186,164.4728,347.5527,169.9623,342.0632,168.5965,350.13,174.2469" style="stroke:#181818;stroke-width:1;"/><text fill="#000000" font-family="sans-serif" font-size="13" lengthAdjust="spacing" textLength="76.0894" x="333.5" y="140.3638">depends on</text></g><!--link appa to log--><g id="link_appa_log"><path d="M212.5,227.3969 C212.5,249.7169 212.5,275.9369 212.5,298.2469 " fill="transparent" id="appa-to-log" style="stroke:#181818;stroke-width:1;"/><polygon fill="#181818" points="212.5,304.2469,216.5,295.2469,212.5,299.2469,208.5,295.2469,212.5,304.2469" style="stroke:#181818;stroke-width:1;"/><text fill="#000000" font-family="sans-serif" font-size="13" lengthAdjust="spacing" textLength="76.0894" x="213.5" y="270.3638">depends on</text></g><!--link appb to log--><g id="link_appb_log"><path d="M344.6,227.4569 C332.04,242.0569 315.29,260.1869 298.5,274.2969 C285.71,285.0469 275.7875,292.1644 261.9375,300.9444 " fill="transparent" id="appb-to-log" style="stroke:#181818;stroke-width:1;"/><polygon fill="#181818" points="256.87,304.1569,266.613,302.7165,261.0929,301.4798,262.3296,295.9598,256.87,304.1569" style="stroke:#181818;stroke-width:1;"/><text fill="#000000" font-family="sans-serif" font-size="13" lengthAdjust="spacing" textLength="76.0894" x="317.5" y="270.3638">depends on</text></g><!--SRC=[VO_DJiCm48JlVefLxda1L4Lg2fmu4LvWaonH5MTtvHz1XNXtN4EgE09ocdW-pup3ELY2wk4T5qtYEJAye9ie-CeOFvzPqU429rbKc3XquP8mHqD0dYnja6553WSNkGuvfMdWmq3wMXpcoKdayIHM77JpfRMHpAVvFU8cSqAYRWTGTIaxHAq0FVXl3MNfbdwI2UwH5k5ymQRV8ZuD-CceHtdZkhaYTp2I4eyUX8lknsXjpdbDuf_MeoeSCuYgk6lSSUtAzVjbkMITTGqgTktTld1px_P9fTV_uNq1]--></g></svg>