<svg xmlns="http://www.w3.org/2000/svg" xmlns:xlink="http://www.w3.org/1999/xlink" contentStyleType="text/css" data-diagram-type="DESCRIPTION" height="476px" preserveAspectRatio="none" style="width:461px;height:476px;background:#FFFFFF;" version="1.1" viewBox="0 0 461 476" width="461px" zoomAndPan="magnify"><title>Example Config Visualized </title><defs/><g><text fill="#000000" font-family="sans-serif" font-size="14" font-weight="bold" lengthAdjust="spacing" textLength="208.1064" x="117.2998" y="22.9951">Example Config Visualized</text><!--entity minimal--><g id="elem_minimal"><rect fill="#87CEEB" height="52.5938" rx="2.5" ry="2.5" style="stroke:#181818;stroke-width:0.5;" width="110.6484" x="18" y="158.2969"/><text fill="#000000" font-family="sans-serif" font-size="14" font-style="italic" lengthAdjust="spacing" textLength="88.6484" x="29" y="181.292">&#171;run-target&#187;</text><text fill="#000000" font-family="sans-serif" font-size="14" lengthAdjust="spacing" textLength="54.8379" x="45.9053" y="197.5889">Minimal</text></g><!--entity full--><g id="elem_full"><rect fill="#87CEEB" height="52.5938" rx="2.5" ry="2.5" style="stroke:#181818;stroke-width:0.5;" width="110.6484" x="92" y="44.2969"/><text fill="#000000" font-family="sans-serif" font-size="14" font-style="italic" lengthAdjust="spacing" textLength="88.6484" x="103" y="67.292">&#171;run-target&#187;</text><text fill="#000000" font-family="sans-serif" font-size="14" lengthAdjust="spacing" textLength="24.7051" x="134.9717" y="83.5889">Full</text></g><!--entity dlt--><g id="elem_dlt"><rect fill="#F1F1F1" height="52.5938" rx="2.5" ry="2.5" style="stroke:#181818;stroke-width:0.5;" width="118.4824" x="165.5" y="288.2969"/><text fill="#000000" font-family="sans-serif" font-size="14" font-style="italic" lengthAdjust="spacing" textLength="96.4824" x="176.5" y="311.292">&#171;component&#187;</text><text fill="#000000" font-family="sans-serif" font-size="14" lengthAdjust="spacing" textLength="84.2598" x="182.6113" y="327.5889">Dlt-Daemon</text></g><!--entity stm--><g id="elem_stm"><rect fill="#F1F1F1" height="52.5938" rx="2.5" ry="2.5" style="stroke:#181818;stroke-width:0.5;" width="122.874" x="7" y="288.2969"/><text fill="#000000" font-family="sans-serif" font-size="14" font-style="italic" lengthAdjust="spacing" textLength="96.4824" x="20.1958" y="311.292">&#171;component&#187;</text><text fill="#000000" font-family="sans-serif" font-size="14" lengthAdjust="spacing" textLength="102.874" x="17" y="327.5889">State Manager</text></g><!--entity test_app--><g id="elem_test_app"><rect fill="#F1F1F1" height="52.5938" rx="2.5" ry="2.5" style="stroke:#181818;stroke-width:0.5;" width="118.4824" x="165.5" y="158.2969"/><text fill="#000000" font-family="sans-serif" font-size="14" font-style="italic" lengthAdjust="spacing" textLength="96.4824" x="176.5" y="181.292">&#171;component&#187;</text><text fill="#000000" font-family="sans-serif" font-size="14" lengthAdjust="spacing" textLength="61.749" x="193.8667" y="197.5889">Test App</text></g><!--entity setup_fs--><g id="elem_setup_fs"><rect fill="#F1F1F1" height="52.5938" rx="2.5" ry="2.5" style="stroke:#181818;stroke-width:0.5;" width="140.2578" x="75.5" y="418.2969"/><text fill="#000000" font-family="sans-serif" font-size="14" font-style="italic" lengthAdjust="spacing" textLength="96.4824" x="97.3877" y="441.292">&#171;component&#187;</text><text fill="#000000" font-family="sans-serif" font-size="14" lengthAdjust="spacing" textLength="120.2578" x="85.5" y="457.5889">Setup Filesystem</text></g><!--entity someip--><g id="elem_someip"><rect fill="#F1F1F1" height="52.5938" rx="2.5" ry="2.5" style="stroke:#181818;stroke-width:0.5;" width="136.5801" x="319" y="288.2969"/><text fill="#000000" font-family="sans-serif" font-size="14" font-style="italic" lengthAdjust="spacing" textLength="96.4824" x="339.0488" y="311.292">&#171;component&#187;</text><text fill="#000000" font-family="sans-serif" font-size="14" lengthAdjust="spacing" textLength="116.5801" x="329" y="327.5889">Someip-Daemon</text></g><!--link full to minimal--><g id="link_full_minimal"><path d="M130.52,97.4969 C118.49,115.7069 105.7172,135.0306 93.7072,153.2106 " fill="transparent" id="full-to-minimal" style="stroke:#181818;stroke-width:1;"/><polygon fill="#181818" points="90.4,158.2169,98.6983,152.9123,93.156,154.045,92.0233,148.5027,90.4,158.2169" style="stroke:#181818;stroke-width:1;"/></g><!--link full to test_app--><g id="link_full_test_app"><path d="M165.17,97.4969 C177.69,115.7069 191.0088,135.0941 203.5188,153.2741 " fill="transparent" id="full-to-test_app" style="stroke:#181818;stroke-width:1;"/><polygon fill="#181818" points="206.92,158.2169,205.1133,148.5351,204.0856,154.0979,198.5229,153.0701,206.92,158.2169" style="stroke:#181818;stroke-width:1;"/></g><!--link test_app to dlt--><g id="link_test_app_dlt"><path d="M224.5,211.3969 C224.5,233.7169 224.5,259.9369 224.5,282.2469 " fill="transparent" id="test_app-to-dlt" style="stroke:#181818;stroke-width:1;"/><polygon fill="#181818" points="224.5,288.2469,228.5,279.2469,224.5,283.2469,220.5,279.2469,224.5,288.2469" style="stroke:#181818;stroke-width:1;"/><text fill="#000000" font-family="sans-serif" font-size="13" lengthAdjust="spacing" textLength="53.8535" x="225.5" y="254.3638">Running</text></g><!--link dlt to setup_fs--><g id="link_dlt_setup_fs"><path d="M208.7,341.3969 C194.92,363.7169 178.1913,390.8311 164.4213,413.1411 " fill="transparent" id="dlt-to-setup_fs" style="stroke:#181818;stroke-width:1;"/><polygon fill="#181818" points="161.27,418.2469,169.4009,412.6891,163.8961,413.9921,162.5932,408.4873,161.27,418.2469" style="stroke:#181818;stroke-width:1;"/><text fill="#000000" font-family="sans-serif" font-size="13" lengthAdjust="spacing" textLength="75.1118" x="190.5" y="384.3638">Terminated</text></g><!--link test_app to someip--><g id="link_test_app_someip"><path d="M257.09,211.3969 C285.52,233.7169 321.8311,262.2312 350.2411,284.5412 " fill="transparent" id="test_app-to-someip" style="stroke:#181818;stroke-width:1;"/><polygon fill="#181818" points="354.96,288.2469,350.3521,279.5424,351.0276,285.1588,345.4112,285.8343,354.96,288.2469" style="stroke:#181818;stroke-width:1;"/><text fill="#000000" font-family="sans-serif" font-size="13" lengthAdjust="spacing" textLength="53.8535" x="316.5" y="254.3638">Running</text></g><!--link minimal to stm--><g id="link_minimal_stm"><path d="M72.5,211.3969 C71.63,233.7169 70.6038,259.9414 69.7338,282.2514 " fill="transparent" id="minimal-to-stm" style="stroke:#181818;stroke-width:1;"/><polygon fill="#181818" points="69.5,288.2469,73.8477,279.4096,69.6948,283.2507,65.8537,279.0978,69.5,288.2469" style="stroke:#181818;stroke-width:1;"/></g><!--link stm to setup_fs--><g id="link_stm_setup_fs"><path d="M74.96,341.3969 C79.25,355.8069 85.71,373.7669 94.5,388.2969 C100.93,398.9369 105.4871,404.9578 113.8671,413.8178 " fill="transparent" id="stm-to-setup_fs" style="stroke:#181818;stroke-width:1;"/><polygon fill="#181818" points="117.99,418.1769,114.7117,408.8896,114.5542,414.5443,108.8996,414.3869,117.99,418.1769" style="stroke:#181818;stroke-width:1;"/><text fill="#000000" font-family="sans-serif" font-size="13" lengthAdjust="spacing" textLength="75.1118" x="95.5" y="384.3638">Terminated</text></g><!--SRC=[VP71Ri8m38RlUGghzxu0GaW3netBGBiYgpLLrCI94aSQc_RkIrCL2XhqvFxv_Dlv8reCGVN-XTRdOkFuh3lur36XqT_KGgLKx3Lx36ZpiVMEYUKWbqm7QWIvCpH3cWbPBaFYMZ1q9AiL_2Z8tngRlWikSRjnnWKuz9UrIQH-rVyMrx8uPEegGBNNh2sQ2Z227Mku7pgdTycCw3aNZzmSt1gfjqZMSS5R8t2tnvmz20h17Xax2WMFOf_ZHue2RzuNKlBF2Rr_uKwIFEoqeNY9GdOSC8YdStpHvYnfFxz3BCf3Xr8bYRfUJUdTX6atTLroK7CK2_X8p9exDUGoYDC-2pXIo4OvaFQ-RPn-wrJJOvL3iMh8x9dL7m00]--></g></svg>