<svg xmlns="http://www.w3.org/2000/svg" xmlns:xlink="http://www.w3.org/1999/xlink" contentStyleType="text/css" data-diagram-type="SEQUENCE" height="178px" preserveAspectRatio="none" style="width:564px;height:178px;background:#FFFFFF;" version="1.1" viewBox="0 0 564 178" width="564px" zoomAndPan="magnify"><title>Ready State of a Non Reporting</title><defs/><g><text fill="#000000" font-family="sans-serif" font-size="14" font-weight="bold" lengthAdjust="spacing" textLength="250.4072" x="156.0767" y="27.9951">Ready State of a Non Reporting</text><g><title>Launch Manager</title><rect fill="#FFFFFF" height="50.1328" style="stroke:#181818;stroke-width:1;" width="10" x="363.2559" y="83.5938"/></g><g><title>Launch Manager</title><rect fill="#FFFFFF" height="44.1328" style="stroke:#181818;stroke-width:1;" width="10" x="368.2559" y="89.5938"/></g><g><title>Non Reporting</title><rect fill="#FFFFFF" height="44.1328" style="stroke:#181818;stroke-width:1;" width="10" x="496.0361" y="89.5938"/></g><g><title>Launch Manager</title><rect fill="transparent" height="69.1328" width="8" x="364.2559" y="73.5938"/><line style="stroke:#181818;stroke-width:0.5;stroke-dasharray:5.0,5.0;" x1="368" x2="368" y1="73.5938" y2="142.7266"/></g><g><title>Non Reporting</title><rect fill="transparent" height="69.1328" width="8" x="497.0361" y="73.5938"/><line style="stroke:#181818;stroke-width:0.5;stroke-dasharray:5.0,5.0;" x1="500.5117" x2="500.5117" y1="73.5938" y2="142.7266"/></g><rect fill="#E2E2F0" height="30.2969" rx="2.5" ry="2.5" style="stroke:#181818;stroke-width:0.5;" width="130.5117" x="303" y="42.2969"/><text fill="#000000" font-family="sans-serif" font-size="14" lengthAdjust="spacing" textLength="116.5117" x="310" y="62.292">Launch Manager</text><rect fill="#E2E2F0" height="30.2969" rx="2.5" ry="2.5" style="stroke:#181818;stroke-width:0.5;" width="130.5117" x="303" y="141.7266"/><text fill="#000000" font-family="sans-serif" font-size="14" lengthAdjust="spacing" textLength="116.5117" x="310" y="161.7217">Launch Manager</text><rect fill="#E2E2F0" height="30.2969" rx="2.5" ry="2.5" style="stroke:#181818;stroke-width:0.5;" width="115.0488" x="443.5117" y="42.2969"/><text fill="#000000" font-family="sans-serif" font-size="14" lengthAdjust="spacing" textLength="101.0488" x="450.5117" y="62.292">Non Reporting</text><rect fill="#E2E2F0" height="30.2969" rx="2.5" ry="2.5" style="stroke:#181818;stroke-width:0.5;" width="115.0488" x="443.5117" y="141.7266"/><text fill="#000000" font-family="sans-serif" font-size="14" lengthAdjust="spacing" textLength="101.0488" x="450.5117" y="161.7217">Non Reporting</text><g><title>Launch Manager</title><rect fill="#FFFFFF" height="50.1328" style="stroke:#181818;stroke-width:1;" width="10" x="363.2559" y="83.5938"/></g><g><title>Launch Manager</title><rect fill="#FFFFFF" height="44.1328" style="stroke:#181818;stroke-width:1;" width="10" x="368.2559" y="89.5938"/></g><g><title>Non Reporting</title><rect fill="#FFFFFF" height="44.1328" style="stroke:#181818;stroke-width:1;" width="10" x="496.0361" y="89.5938"/></g><polygon fill="#181818" points="484.0361,85.5938,494.0361,89.5938,484.0361,93.5938,488.0361,89.5938" style="stroke:#181818;stroke-width:1;"/><line style="stroke:#181818;stroke-width:1;" x1="378.2559" x2="490.0361" y1="89.5938" y2="89.5938"/><path d="M5,102.5938 L5,127.5938 L358,127.5938 L358,112.5938 L348,102.5938 L5,102.5938 " fill="#FEFFDD" style="stroke:#181818;stroke-width:0.5;"/><path d="M348,102.5938 L348,112.5938 L358,112.5938 L348,102.5938 " fill="#FEFFDD" style="stroke:#181818;stroke-width:0.5;"/><text fill="#000000" font-family="sans-serif" font-size="13" lengthAdjust="spacing" textLength="332.9219" x="11" y="119.6606">Assume the non reporting process is in ready state</text><!--SRC=[LK_13S8m3FndYbF-h8347tYK2QpKRIErJfIuIFmw22pNIOWV8B0i-Nmw-soDEZDynzG_S5DIHXf0k2P1npaLZJ9wbwc143E9mfzfbJ3XGa8Z5m-gc9S_oRuz_nRisyjKKfoZeF5kDcraNd0u6libVt4JIBBAWzfHhKUBKwthmj2fgPj7-NWWbnIuLiIMnjj7rJvoB3ribNi3]--></g></svg>