<svg xmlns="http://www.w3.org/2000/svg" xmlns:xlink="http://www.w3.org/1999/xlink" contentStyleType="text/css" data-diagram-type="SEQUENCE" height="975px" preserveAspectRatio="none" style="width:876px;height:975px;background:#FFFFFF;" version="1.1" viewBox="0 0 876 975" width="876px" zoomAndPan="magnify"><title>Application Lifecycle Sequence Diagram</title><defs/><g><text fill="#000000" font-family="sans-serif" font-size="14" font-weight="bold" lengthAdjust="spacing" textLength="316.8936" x="276.021" y="27.9951">Application Lifecycle Sequence Diagram</text><g><title>OS_ExecMgmt</title><rect fill="transparent" height="866.4531" width="8" x="58.2202" y="73.5938"/><line style="stroke:#181818;stroke-width:0.5;stroke-dasharray:5.0,5.0;" x1="62" x2="62" y1="73.5938" y2="940.0469"/></g><g><title>Process</title><rect fill="transparent" height="866.4531" width="8" x="184.2969" y="73.5938"/><line style="stroke:#181818;stroke-width:0.5;stroke-dasharray:5.0,5.0;" x1="187.4658" x2="187.4658" y1="73.5938" y2="940.0469"/></g><g><title>AppContext</title><rect fill="transparent" height="866.4531" width="8" x="310.2148" y="73.5938"/><line style="stroke:#181818;stroke-width:0.5;stroke-dasharray:5.0,5.0;" x1="313.9941" x2="313.9941" y1="73.5938" y2="940.0469"/></g><g><title>Application</title><rect fill="transparent" height="866.4531" width="8" x="414.5474" y="73.5938"/><line style="stroke:#181818;stroke-width:0.5;stroke-dasharray:5.0,5.0;" x1="418.4355" x2="418.4355" y1="73.5938" y2="940.0469"/></g><g><title>LifecycleManager</title><rect fill="transparent" height="866.4531" width="8" x="589.7866" y="73.5938"/><line style="stroke:#181818;stroke-width:0.5;stroke-dasharray:5.0,5.0;" x1="593.3965" x2="593.3965" y1="73.5938" y2="940.0469"/></g><g><title>StopSource</title><rect fill="transparent" height="866.4531" width="8" x="715.2866" y="73.5938"/><line style="stroke:#181818;stroke-width:0.5;stroke-dasharray:5.0,5.0;" x1="719.1768" x2="719.1768" y1="73.5938" y2="940.0469"/></g><g><title>StopToken</title><rect fill="transparent" height="866.4531" width="8" x="816.666" y="73.5938"/><line style="stroke:#181818;stroke-width:0.5;stroke-dasharray:5.0,5.0;" x1="820.3965" x2="820.3965" y1="73.5938" y2="940.0469"/></g><rect fill="#E2E2F0" height="30.2969" rx="2.5" ry="2.5" style="stroke:#181818;stroke-width:0.5;" width="114.4404" x="5" y="42.2969"/><text fill="#000000" font-family="sans-serif" font-size="14" lengthAdjust="spacing" textLength="100.4404" x="12" y="62.292">OS_ExecMgmt</text><rect fill="#E2E2F0" height="30.2969" rx="2.5" ry="2.5" style="stroke:#181818;stroke-width:0.5;" width="114.4404" x="5" y="939.0469"/><text fill="#000000" font-family="sans-serif" font-size="14" lengthAdjust="spacing" textLength="100.4404" x="12" y="959.042">OS_ExecMgmt</text><rect fill="#E2E2F0" height="30.2969" rx="2.5" ry="2.5" style="stroke:#181818;stroke-width:0.5;" width="67.6621" x="154.4658" y="42.2969"/><text fill="#000000" font-family="sans-serif" font-size="14" lengthAdjust="spacing" textLength="53.6621" x="161.4658" y="62.292">Process</text><rect fill="#E2E2F0" height="30.2969" rx="2.5" ry="2.5" style="stroke:#181818;stroke-width:0.5;" width="67.6621" x="154.4658" y="939.0469"/><text fill="#000000" font-family="sans-serif" font-size="14" lengthAdjust="spacing" textLength="53.6621" x="161.4658" y="959.042">Process</text><rect fill="#E2E2F0" height="30.2969" rx="2.5" ry="2.5" style="stroke:#181818;stroke-width:0.5;" width="96.4414" x="265.9941" y="42.2969"/><text fill="#000000" font-family="sans-serif" font-size="14" lengthAdjust="spacing" textLength="82.4414" x="272.9941" y="62.292">AppContext</text><rect fill="#E2E2F0" height="30.2969" rx="2.5" ry="2.5" style="stroke:#181818;stroke-width:0.5;" width="96.4414" x="265.9941" y="939.0469"/><text fill="#000000" font-family="sans-serif" font-size="14" lengthAdjust="spacing" textLength="82.4414" x="272.9941" y="959.042">AppContext</text><rect fill="#E2E2F0" height="30.2969" rx="2.5" ry="2.5" style="stroke:#181818;stroke-width:0.5;" width="92.2236" x="372.4355" y="42.2969"/><text fill="#000000" font-family="sans-serif" font-size="14" lengthAdjust="spacing" textLength="78.2236" x="379.4355" y="62.292">Application</text><rect fill="#E2E2F0" height="30.2969" rx="2.5" ry="2.5" style="stroke:#181818;stroke-width:0.5;" width="92.2236" x="372.4355" y="939.0469"/><text fill="#000000" font-family="sans-serif" font-size="14" lengthAdjust="spacing" textLength="78.2236" x="379.4355" y="959.042">Application</text><rect fill="#E2E2F0" height="30.2969" rx="2.5" ry="2.5" style="stroke:#181818;stroke-width:0.5;" width="136.7803" x="525.3965" y="42.2969"/><text fill="#000000" font-family="sans-serif" font-size="14" lengthAdjust="spacing" textLength="122.7803" x="532.3965" y="62.292">LifecycleManager</text><rect fill="#E2E2F0" height="30.2969" rx="2.5" ry="2.5" style="stroke:#181818;stroke-width:0.5;" width="136.7803" x="525.3965" y="939.0469"/><text fill="#000000" font-family="sans-serif" font-size="14" lengthAdjust="spacing" textLength="122.7803" x="532.3965" y="959.042">LifecycleManager</text><rect fill="#E2E2F0" height="30.2969" rx="2.5" ry="2.5" style="stroke:#181818;stroke-width:0.5;" width="94.2197" x="672.1768" y="42.2969"/><text fill="#000000" font-family="sans-serif" font-size="14" lengthAdjust="spacing" textLength="80.2197" x="679.1768" y="62.292">StopSource</text><rect fill="#E2E2F0" height="30.2969" rx="2.5" ry="2.5" style="stroke:#181818;stroke-width:0.5;" width="94.2197" x="672.1768" y="939.0469"/><text fill="#000000" font-family="sans-serif" font-size="14" lengthAdjust="spacing" textLength="80.2197" x="679.1768" y="959.042">StopSource</text><rect fill="#E2E2F0" height="30.2969" rx="2.5" ry="2.5" style="stroke:#181818;stroke-width:0.5;" width="88.5391" x="776.3965" y="42.2969"/><text fill="#000000" font-family="sans-serif" font-size="14" lengthAdjust="spacing" textLength="74.5391" x="783.3965" y="62.292">StopToken</text><rect fill="#E2E2F0" height="30.2969" rx="2.5" ry="2.5" style="stroke:#181818;stroke-width:0.5;" width="88.5391" x="776.3965" y="939.0469"/><text fill="#000000" font-family="sans-serif" font-size="14" lengthAdjust="spacing" textLength="74.5391" x="783.3965" y="959.042">StopToken</text><rect fill="#EEEEEE" height="3" style="stroke:#EEEEEE;stroke-width:1;" width="869.9355" x="0" y="104.1602"/><line style="stroke:#000000;stroke-width:1;" x1="0" x2="869.9355" y1="104.1602" y2="104.1602"/><line style="stroke:#000000;stroke-width:1;" x1="0" x2="869.9355" y1="107.1602" y2="107.1602"/><rect fill="#EEEEEE" height="23.1328" style="stroke:#000000;stroke-width:2;" width="110.624" x="379.6558" y="93.5938"/><text fill="#000000" font-family="sans-serif" font-size="13" font-weight="bold" lengthAdjust="spacing" textLength="92.0981" x="385.6558" y="109.6606">Initialization</text><line style="stroke:#181818;stroke-width:1;" x1="186.2969" x2="176.2969" y1="147.8594" y2="143.8594"/><line style="stroke:#181818;stroke-width:1;" x1="186.2969" x2="176.2969" y1="147.8594" y2="151.8594"/><line style="stroke:#181818;stroke-width:1;" x1="62.2202" x2="187.2969" y1="147.8594" y2="147.8594"/><text fill="#000000" font-family="sans-serif" font-size="13" lengthAdjust="spacing" textLength="41.5518" x="69.2202" y="142.7935">create</text><line style="stroke:#181818;stroke-width:1;" x1="188.2969" x2="230.2969" y1="176.9922" y2="176.9922"/><line style="stroke:#181818;stroke-width:1;" x1="230.2969" x2="230.2969" y1="176.9922" y2="189.9922"/><line style="stroke:#181818;stroke-width:1;" x1="188.2969" x2="230.2969" y1="189.9922" y2="189.9922"/><line style="stroke:#181818;stroke-width:1;" x1="189.2969" x2="199.2969" y1="189.9922" y2="185.9922"/><line style="stroke:#181818;stroke-width:1;" x1="189.2969" x2="199.2969" y1="189.9922" y2="193.9922"/><text fill="#000000" font-family="sans-serif" font-size="13" lengthAdjust="spacing" textLength="108.856" x="195.2969" y="171.9263">main(argc, argv)</text><line style="stroke:#181818;stroke-width:1;" x1="312.2148" x2="302.2148" y1="219.125" y2="215.125"/><line style="stroke:#181818;stroke-width:1;" x1="312.2148" x2="302.2148" y1="219.125" y2="223.125"/><line style="stroke:#181818;stroke-width:1;" x1="188.2969" x2="313.2148" y1="219.125" y2="219.125"/><text fill="#000000" font-family="sans-serif" font-size="13" lengthAdjust="spacing" textLength="101.918" x="195.2969" y="214.0591">ctor(argc, argv)</text><line style="stroke:#181818;stroke-width:1;" x1="416.5474" x2="406.5474" y1="248.2578" y2="244.2578"/><line style="stroke:#181818;stroke-width:1;" x1="416.5474" x2="406.5474" y1="248.2578" y2="252.2578"/><line style="stroke:#181818;stroke-width:1;" x1="188.2969" x2="417.5474" y1="248.2578" y2="248.2578"/><text fill="#000000" font-family="sans-serif" font-size="13" lengthAdjust="spacing" textLength="35.6865" x="195.2969" y="243.1919">ctor()</text><line style="stroke:#181818;stroke-width:1;" x1="717.2866" x2="707.2866" y1="277.3906" y2="273.3906"/><line style="stroke:#181818;stroke-width:1;" x1="717.2866" x2="707.2866" y1="277.3906" y2="281.3906"/><line style="stroke:#181818;stroke-width:1;" x1="188.2969" x2="718.2866" y1="277.3906" y2="277.3906"/><text fill="#000000" font-family="sans-serif" font-size="13" lengthAdjust="spacing" textLength="35.6865" x="195.2969" y="272.3247">ctor()</text><line style="stroke:#181818;stroke-width:1;" x1="591.7866" x2="581.7866" y1="306.5234" y2="302.5234"/><line style="stroke:#181818;stroke-width:1;" x1="591.7866" x2="581.7866" y1="306.5234" y2="310.5234"/><line style="stroke:#181818;stroke-width:1;" x1="188.2969" x2="592.7866" y1="306.5234" y2="306.5234"/><text fill="#000000" font-family="sans-serif" font-size="13" lengthAdjust="spacing" textLength="213.4146" x="195.2969" y="301.4575">ctor(Application&amp;, AppContext&amp;)</text><line style="stroke:#181818;stroke-width:1;" x1="591.7866" x2="581.7866" y1="335.6563" y2="331.6563"/><line style="stroke:#181818;stroke-width:1;" x1="591.7866" x2="581.7866" y1="335.6563" y2="339.6563"/><line style="stroke:#181818;stroke-width:1;" x1="62.2202" x2="592.7866" y1="335.6563" y2="335.6563"/><text fill="#000000" font-family="sans-serif" font-size="13" lengthAdjust="spacing" textLength="151.6836" x="69.2202" y="330.5903">registerSignalHandler()</text><rect fill="#EEEEEE" height="3" style="stroke:#EEEEEE;stroke-width:1;" width="869.9355" x="0" y="364.2227"/><line style="stroke:#000000;stroke-width:1;" x1="0" x2="869.9355" y1="364.2227" y2="364.2227"/><line style="stroke:#000000;stroke-width:1;" x1="0" x2="869.9355" y1="367.2227" y2="367.2227"/><rect fill="#EEEEEE" height="23.1328" style="stroke:#000000;stroke-width:2;" width="90.4258" x="389.7549" y="353.6563"/><text fill="#000000" font-family="sans-serif" font-size="13" font-weight="bold" lengthAdjust="spacing" textLength="71.8999" x="395.7549" y="369.7231">Execution</text><line style="stroke:#181818;stroke-width:1;" x1="591.7866" x2="581.7866" y1="407.9219" y2="403.9219"/><line style="stroke:#181818;stroke-width:1;" x1="591.7866" x2="581.7866" y1="407.9219" y2="411.9219"/><line style="stroke:#181818;stroke-width:1;" x1="188.2969" x2="592.7866" y1="407.9219" y2="407.9219"/><text fill="#000000" font-family="sans-serif" font-size="13" lengthAdjust="spacing" textLength="31.9668" x="195.2969" y="402.856">run()</text><line style="stroke:#181818;stroke-width:1;" x1="419.5474" x2="429.5474" y1="437.0547" y2="433.0547"/><line style="stroke:#181818;stroke-width:1;" x1="419.5474" x2="429.5474" y1="437.0547" y2="441.0547"/><line style="stroke:#181818;stroke-width:1;" x1="418.5474" x2="592.7866" y1="437.0547" y2="437.0547"/><text fill="#000000" font-family="sans-serif" font-size="13" lengthAdjust="spacing" textLength="151.2393" x="435.5474" y="431.9888">Initialize(AppContext&amp;)</text><line style="stroke:#181818;stroke-width:1;" x1="591.7866" x2="581.7866" y1="466.1875" y2="462.1875"/><line style="stroke:#181818;stroke-width:1;" x1="591.7866" x2="581.7866" y1="466.1875" y2="470.1875"/><line style="stroke:#181818;stroke-width:1;stroke-dasharray:2.0,2.0;" x1="418.5474" x2="592.7866" y1="466.1875" y2="466.1875"/><text fill="#000000" font-family="sans-serif" font-size="13" lengthAdjust="spacing" textLength="40.2632" x="425.5474" y="461.1216">return</text><line style="stroke:#181818;stroke-width:1;" x1="818.666" x2="808.666" y1="495.3203" y2="491.3203"/><line style="stroke:#181818;stroke-width:1;" x1="818.666" x2="808.666" y1="495.3203" y2="499.3203"/><line style="stroke:#181818;stroke-width:1;" x1="593.7866" x2="819.666" y1="495.3203" y2="495.3203"/><text fill="#000000" font-family="sans-serif" font-size="13" lengthAdjust="spacing" textLength="41.5518" x="600.7866" y="490.2544">create</text><line style="stroke:#181818;stroke-width:1;" x1="419.5474" x2="429.5474" y1="524.4531" y2="520.4531"/><line style="stroke:#181818;stroke-width:1;" x1="419.5474" x2="429.5474" y1="524.4531" y2="528.4531"/><line style="stroke:#181818;stroke-width:1;" x1="418.5474" x2="592.7866" y1="524.4531" y2="524.4531"/><text fill="#000000" font-family="sans-serif" font-size="13" lengthAdjust="spacing" textLength="101.1816" x="435.5474" y="519.3872">run(StopToken)</text><rect fill="#EEEEEE" height="3" style="stroke:#EEEEEE;stroke-width:1;" width="869.9355" x="0" y="553.0195"/><line style="stroke:#000000;stroke-width:1;" x1="0" x2="869.9355" y1="553.0195" y2="553.0195"/><line style="stroke:#000000;stroke-width:1;" x1="0" x2="869.9355" y1="556.0195" y2="556.0195"/><rect fill="#EEEEEE" height="23.1328" style="stroke:#000000;stroke-width:2;" width="134.3452" x="367.7952" y="542.4531"/><text fill="#000000" font-family="sans-serif" font-size="13" font-weight="bold" lengthAdjust="spacing" textLength="115.8193" x="373.7952" y="558.52">Signal Handling</text><line style="stroke:#181818;stroke-width:1;" x1="591.7866" x2="581.7866" y1="596.7188" y2="592.7188"/><line style="stroke:#181818;stroke-width:1;" x1="591.7866" x2="581.7866" y1="596.7188" y2="600.7188"/><line style="stroke:#181818;stroke-width:1;" x1="62.2202" x2="592.7866" y1="596.7188" y2="596.7188"/><text fill="#000000" font-family="sans-serif" font-size="13" lengthAdjust="spacing" textLength="104.1396" x="69.2202" y="591.6528">Signal(SigTerm)</text><line style="stroke:#181818;stroke-width:1;" x1="717.2866" x2="707.2866" y1="625.8516" y2="621.8516"/><line style="stroke:#181818;stroke-width:1;" x1="717.2866" x2="707.2866" y1="625.8516" y2="629.8516"/><line style="stroke:#181818;stroke-width:1;" x1="593.7866" x2="718.2866" y1="625.8516" y2="625.8516"/><text fill="#000000" font-family="sans-serif" font-size="13" lengthAdjust="spacing" textLength="94.4214" x="600.7866" y="620.7856">request_stop()</text><line style="stroke:#181818;stroke-width:1;" x1="818.666" x2="808.666" y1="654.9844" y2="650.9844"/><line style="stroke:#181818;stroke-width:1;" x1="818.666" x2="808.666" y1="654.9844" y2="658.9844"/><line style="stroke:#181818;stroke-width:1;" x1="719.2866" x2="819.666" y1="654.9844" y2="654.9844"/><text fill="#000000" font-family="sans-serif" font-size="13" lengthAdjust="spacing" textLength="47.3154" x="726.2866" y="649.9185">notify()</text><rect fill="#EEEEEE" height="3" style="stroke:#EEEEEE;stroke-width:1;" width="869.9355" x="0" y="683.5508"/><line style="stroke:#000000;stroke-width:1;" x1="0" x2="869.9355" y1="683.5508" y2="683.5508"/><line style="stroke:#000000;stroke-width:1;" x1="0" x2="869.9355" y1="686.5508" y2="686.5508"/><rect fill="#EEEEEE" height="23.1328" style="stroke:#000000;stroke-width:2;" width="68.9136" x="400.511" y="672.9844"/><text fill="#000000" font-family="sans-serif" font-size="13" font-weight="bold" lengthAdjust="spacing" textLength="50.3877" x="406.511" y="689.0513">Polling</text><path d="M330,711.1172 L330,736.1172 L505,736.1172 L505,721.1172 L495,711.1172 L330,711.1172 " fill="#FEFFDD" style="stroke:#181818;stroke-width:0.5;"/><path d="M495,711.1172 L495,721.1172 L505,721.1172 L495,711.1172 " fill="#FEFFDD" style="stroke:#181818;stroke-width:0.5;"/><text fill="#000000" font-family="sans-serif" font-size="13" lengthAdjust="spacing" textLength="154.7939" x="336" y="728.1841">Check stop_requested()</text><line style="stroke:#181818;stroke-width:1;" x1="818.666" x2="808.666" y1="762.3828" y2="758.3828"/><line style="stroke:#181818;stroke-width:1;" x1="818.666" x2="808.666" y1="762.3828" y2="766.3828"/><line style="stroke:#181818;stroke-width:1;" x1="418.5474" x2="819.666" y1="762.3828" y2="762.3828"/><text fill="#000000" font-family="sans-serif" font-size="13" lengthAdjust="spacing" textLength="110.6714" x="425.5474" y="757.3169">stop_requested()</text><line style="stroke:#181818;stroke-width:1;" x1="419.5474" x2="429.5474" y1="791.5156" y2="787.5156"/><line style="stroke:#181818;stroke-width:1;" x1="419.5474" x2="429.5474" y1="791.5156" y2="795.5156"/><line style="stroke:#181818;stroke-width:1;stroke-dasharray:2.0,2.0;" x1="418.5474" x2="819.666" y1="791.5156" y2="791.5156"/><text fill="#000000" font-family="sans-serif" font-size="13" lengthAdjust="spacing" textLength="79.1616" x="435.5474" y="786.4497">TRUE/FALSE</text><rect fill="#EEEEEE" height="3" style="stroke:#EEEEEE;stroke-width:1;" width="869.9355" x="0" y="820.082"/><line style="stroke:#000000;stroke-width:1;" x1="0" x2="869.9355" y1="820.082" y2="820.082"/><line style="stroke:#000000;stroke-width:1;" x1="0" x2="869.9355" y1="823.082" y2="823.082"/><rect fill="#EEEEEE" height="23.1328" style="stroke:#000000;stroke-width:2;" width="92.1143" x="388.9106" y="809.5156"/><text fill="#000000" font-family="sans-serif" font-size="13" font-weight="bold" lengthAdjust="spacing" textLength="73.5884" x="394.9106" y="825.5825">Shutdown</text><line style="stroke:#181818;stroke-width:1;" x1="591.7866" x2="581.7866" y1="863.7813" y2="859.7813"/><line style="stroke:#181818;stroke-width:1;" x1="591.7866" x2="581.7866" y1="863.7813" y2="867.7813"/><line style="stroke:#181818;stroke-width:1;stroke-dasharray:2.0,2.0;" x1="418.5474" x2="592.7866" y1="863.7813" y2="863.7813"/><text fill="#000000" font-family="sans-serif" font-size="13" lengthAdjust="spacing" textLength="102.0767" x="425.5474" y="858.7153">return exitCode</text><line style="stroke:#181818;stroke-width:1;" x1="189.2969" x2="199.2969" y1="892.9141" y2="888.9141"/><line style="stroke:#181818;stroke-width:1;" x1="189.2969" x2="199.2969" y1="892.9141" y2="896.9141"/><line style="stroke:#181818;stroke-width:1;" x1="188.2969" x2="592.7866" y1="892.9141" y2="892.9141"/><text fill="#000000" font-family="sans-serif" font-size="13" lengthAdjust="spacing" textLength="102.0767" x="205.2969" y="887.8481">return exitCode</text><line style="stroke:#181818;stroke-width:1;" x1="63.2202" x2="73.2202" y1="922.0469" y2="918.0469"/><line style="stroke:#181818;stroke-width:1;" x1="63.2202" x2="73.2202" y1="922.0469" y2="926.0469"/><line style="stroke:#181818;stroke-width:1;" x1="62.2202" x2="187.2969" y1="922.0469" y2="922.0469"/><text fill="#000000" font-family="sans-serif" font-size="13" lengthAdjust="spacing" textLength="102.0767" x="79.2202" y="916.981">return exitCode</text><!--SRC=[VLBBRi8m4BpdAwmU44YWtYk1X2XLAoK2rVICBBC4YyHEdGs5VdtzIeW1zP9aTyQxC-EWm0B8lAeAmHaA9Kagzi0lt7GfV3SWEP1NmNBDoYIfc4R1HSKaagSLtIxFmBEyn2V2QhAYCRxMYaDTEonynmIpTQ4amjcVjoMUxoYji9OJ4pgr6PCi1-rOQHQJAAgAgaPpSB0hDR_dRDGHP4SnLP9Cf-H32XIi4By-d-aqML4ocSrQKo-4Qs08IQXZh6H23fdE-PYOvsaKiRnbCm2L_eyK674_s7Y8fLbezm8SZCaryS6eTM6f6d9H8sWgSicAToPt1TYHrhwzuwPrVhj3DzBGqkmgj4iBXj4sKv39THysMhRdGjXTZlrnTa5tDLwG5qcSIY7pteNOqHuTcjS6T3dgxt1XQVjJrxYjJSD83_rOXrGezfVWVwsATetf0r4dq5xRuW3yIEoWRPWAEtl8MUtFkwC4n0VYPcq-lvRFR_EKBht7GuCxzUCoVv0SWRF0XTfrMNM_sotUlx0LlSV_0000]--></g></svg>